<svg width="20" height="20" viewBox="0 0 20 20" fill="none" xmlns="http://www.w3.org/2000/svg">
<g clip-path="url(#clip0_1090_109)">
<path fill-rule="evenodd" clip-rule="evenodd" d="M19.995 2.00981C19.9945 1.47901 19.7834 0.9701 19.4081 0.594767C19.0328 0.219434 18.5238 0.00838271 17.993 0.00785323C17.214 0.00285323 18.043 0.00604073 12.984 4.07289e-05C12.8527 -0.0011465 12.7225 0.0236338 12.6007 0.0727946C12.4789 0.121956 12.368 0.194638 12.2743 0.286662C12.1806 0.378686 12.1059 0.488052 12.0546 0.608927C12.0033 0.729803 11.9762 0.859928 11.9751 0.991252C11.9734 1.12057 11.9977 1.24889 12.0464 1.36869C12.0951 1.4885 12.1673 1.59702 12.2587 1.68852C12.3501 1.78001 12.4589 1.85257 12.5787 1.90141C12.6984 1.95025 12.8267 1.97466 12.956 1.97319L15.3581 1.99711C15.8041 1.99711 16.0141 2.52293 15.6991 2.83793L12.069 6.46928C11.8869 6.65788 11.7861 6.91021 11.7884 7.1724C11.7907 7.4346 11.8958 7.68524 12.0812 7.87065C12.2666 8.05605 12.5175 8.16134 12.7797 8.16362C13.0418 8.16589 13.2944 8.06501 13.4831 7.88285L17.1151 4.25102C17.4301 3.93602 17.9811 4.17223 17.9811 4.61723L17.986 7.00297C17.986 7.55497 18.456 8.02397 19.008 8.02397C19.1394 8.02292 19.2692 7.99609 19.3901 7.94486C19.5111 7.89364 19.6207 7.81923 19.7128 7.72563C19.8049 7.63202 19.8777 7.52118 19.927 7.39945C19.9763 7.27773 20.0011 7.14748 20 7.01615L19.995 2.00981ZM14.116 15.5782C13.421 15.2042 12.718 14.778 11.991 14.481C10.587 13.908 10.682 15.6019 9.67804 16.1509C9.02604 16.5079 8.10804 15.861 7.53804 15.503C6.53409 14.8617 5.65121 14.0484 4.93004 13.1001C4.55604 12.6131 3.72705 11.6972 3.83005 11.0142C3.99105 9.9302 5.27405 9.87585 4.90705 8.54985C4.71105 7.83985 4.36005 7.14107 4.09705 6.45707C3.74405 5.54007 3.60006 4.95297 2.57206 5.00297C1.83206 5.03897 1.33805 5.35621 0.882054 5.95121C-0.350946 7.55821 -0.164949 9.72483 0.664051 11.4878C1.83705 13.9828 3.84904 16.335 5.99904 17.855C7.46104 18.889 9.38705 19.8279 11.157 19.9869C12.453 20.1039 14.267 19.4031 14.73 17.9961L14.6511 18.2339L14.7311 17.9961C14.7761 17.8541 14.8011 17.783 14.8111 17.751L14.7311 17.9932C15.1391 16.7522 15.188 16.1552 14.116 15.5782ZM14.6511 18.2339C14.6391 18.2699 14.6411 18.2649 14.6511 18.2339V18.2339ZM14.8111 17.751C14.8181 17.727 14.8191 17.725 14.8111 17.751V17.751Z" fill="#1C97FF"/>
</g>
<defs>
<clipPath id="clip0_1090_109">
<rect width="20" height="20" fill="white"/>
</clipPath>
</defs>
</svg>
