<svg width="16" height="17" viewBox="0 0 16 17" fill="none" xmlns="http://www.w3.org/2000/svg">
<path d="M7.99987 16.3175C3.5982 16.3175 0 12.6478 0 8.15874C0 3.66965 3.5982 0 7.99987 0C12.4016 0 15.9997 3.66965 15.9997 8.15874C16.0347 12.6478 12.4365 16.3175 7.99987 16.3175ZM7.99987 0.855062C4.05234 0.855062 0.873349 4.13281 0.873349 8.12311C0.873349 12.1134 4.08727 15.3912 7.99987 15.3912C11.9125 15.3912 15.1264 12.1134 15.1264 8.12311C15.1264 4.13281 11.9474 0.855062 7.99987 0.855062Z" fill="white"/>
<path d="M10.5152 12.327L7.54578 9.29866V3.77637H8.48899V8.90675L11.1789 11.6501L10.5152 12.327Z" fill="white"/>
</svg>
