<svg width="34" height="34" viewBox="0 0 34 34" fill="none" xmlns="http://www.w3.org/2000/svg">
<path d="M16.3502 33.9999C16.1172 33.9426 15.8828 33.89 15.6511 33.8268C13.3116 33.1929 11.7217 31.1676 11.6558 28.7182C11.6358 27.9905 11.6524 27.2622 11.6524 26.5132C15.2297 26.5132 18.7783 26.5132 22.3295 26.5132C22.3402 26.5265 22.3662 26.5438 22.3662 26.5605C22.3588 27.8174 22.5333 29.0944 22.0998 30.3121C21.3795 32.3348 19.9527 33.5545 17.8275 33.9386C17.7763 33.9479 17.729 33.9792 17.6797 33.9999C17.2363 33.9999 16.7936 33.9999 16.3502 33.9999Z" fill="#3C4852" fill-opacity="0.75"/>
<path d="M0 15.9912C1.33555 15.9912 2.67044 15.9912 4.02929 15.9912C4.02929 16.6537 4.02929 17.2981 4.02929 17.9846C2.68642 17.9846 1.34288 17.9846 0 17.9846C0 17.3201 0 16.6557 0 15.9912Z" fill="#3C4852" fill-opacity="0.75"/>
<path d="M18.0133 24.4792C18.0133 23.5232 18.0133 22.5944 18.0133 21.6663C18.0133 20.6923 18.004 19.7176 18.0226 18.7435C18.026 18.5791 18.1092 18.3787 18.2237 18.2602C18.9707 17.4892 19.7364 16.7369 20.4614 16.0125C19.9967 15.5471 19.5413 15.0904 19.0606 14.6084C18.4261 15.2482 17.7377 15.9426 17.0426 16.6443C16.3269 15.9173 15.6458 15.2249 14.9907 14.5591C14.4907 15.0578 14.0326 15.5152 13.5539 15.9932C14.2543 16.6929 14.98 17.4353 15.727 18.155C15.9447 18.3647 16.0273 18.5758 16.0246 18.8774C16.0107 20.6157 16.018 22.3541 16.018 24.0924C16.018 24.2122 16.018 24.3328 16.018 24.4759C15.9028 24.4839 15.8076 24.4952 15.7117 24.4952C14.0506 24.4965 12.3895 24.5012 10.7284 24.4879C10.5726 24.4865 10.3815 24.412 10.267 24.3061C8.45473 22.6217 7.39281 20.5505 7.11052 18.0891C6.87284 16.0172 7.26431 14.0644 8.24567 12.2256C8.35752 12.0158 8.47936 11.932 8.72703 11.9326C14.253 11.9406 19.7783 11.9399 25.3043 11.9366C25.5033 11.9366 25.6391 11.9619 25.755 12.167C27.9734 16.0911 27.1265 21.3041 23.7656 24.3108C23.6611 24.404 23.502 24.4879 23.3682 24.4885C21.6405 24.5005 19.9134 24.4959 18.1858 24.4952C18.1425 24.4945 18.0992 24.4872 18.0133 24.4792Z" fill="#3C4852" fill-opacity="0.75"/>
<path d="M8.92475 1.97918C8.23367 1.97918 7.60451 1.97918 6.93407 1.97918C6.93407 3.63165 6.93407 5.27479 6.93407 6.93458C6.25431 6.93458 5.61582 6.93458 4.93873 6.93458C4.93873 5.29676 4.93873 3.65362 4.93873 1.97319C4.25564 1.97319 3.60917 1.97319 2.94672 1.97319C2.94672 1.29743 2.94672 0.660275 2.94672 0.000488281C11.9853 0.000488281 21.0173 0.000488281 30.0765 0.000488281C30.0765 0.636973 30.0765 1.28211 30.0765 1.95455C28.4414 1.95455 26.8069 1.95455 25.1338 1.95455C25.1338 3.29077 25.1338 4.60102 25.1338 5.93324C19.7177 5.93324 14.3402 5.93324 8.92475 5.93324C8.92475 4.62965 8.92475 3.3194 8.92475 1.97918Z" fill="#3C4852" fill-opacity="0.75"/>
<path d="M25.1085 7.97852C25.1085 8.62965 25.1085 9.25814 25.1085 9.9146C19.721 9.9146 14.3375 9.9146 8.93274 9.9146C8.93274 9.28011 8.93274 8.64296 8.93274 7.97852C14.3089 7.97852 19.6924 7.97852 25.1085 7.97852Z" fill="#3C4852" fill-opacity="0.75"/>
<path d="M29.1771 12.4085C28.8915 11.7967 28.6178 11.2108 28.3309 10.5949C29.5652 10.0164 30.7723 9.45112 32.008 8.87256C32.2896 9.47376 32.5646 10.0596 32.8595 10.6881C31.6291 11.2627 30.4161 11.8299 29.1771 12.4085Z" fill="#3C4852" fill-opacity="0.75"/>
<path d="M2.02464 25.0823C1.73503 24.4625 1.46406 23.8846 1.17511 23.2661C2.40214 22.6929 3.61519 22.1263 4.8562 21.5464C5.14249 22.1589 5.41679 22.7448 5.70507 23.3606C4.47804 23.9345 3.27098 24.4991 2.02464 25.0823Z" fill="#3C4852" fill-opacity="0.75"/>
<path d="M28.3389 23.386C28.6291 22.7642 28.9034 22.1783 29.1871 21.5718C30.4201 22.1477 31.6265 22.7103 32.8668 23.2895C32.5832 23.8993 32.3102 24.4852 32.022 25.1037C30.7969 24.5325 29.5912 23.9699 28.3389 23.386Z" fill="#3C4852" fill-opacity="0.75"/>
<path d="M5.6944 10.6098C5.40811 11.2243 5.13847 11.8022 4.84819 12.424C3.62116 11.8521 2.40745 11.2862 1.16577 10.7076C1.45006 10.0978 1.72369 9.51122 2.01198 8.89404C3.23967 9.46595 4.44606 10.0279 5.6944 10.6098Z" fill="#3C4852" fill-opacity="0.75"/>
<path d="M34.0007 17.9772C32.6585 17.9772 31.3436 17.9772 30.0027 17.9772C30.0027 17.3267 30.0027 16.6822 30.0027 16.0151C31.3269 16.0151 32.6571 16.0151 34.0007 16.0151C34.0007 16.6696 34.0007 17.3214 34.0007 17.9772Z" fill="#3C4852" fill-opacity="0.75"/>
</svg>
