<svg width="30" height="34" viewBox="0 0 30 34" fill="none" xmlns="http://www.w3.org/2000/svg">
<g clip-path="url(#clip0_36_132)">
<path d="M3.56105 33.9998C3.51652 32.3325 3.57165 30.6549 3.39709 29.0001C3.24869 27.592 2.86707 26.2039 2.53351 24.8192C1.85084 21.9807 1.07913 19.1623 0.440271 16.3147C-0.249465 13.2386 -0.228971 10.1743 1.224 7.27618C3.20911 3.31831 6.39631 0.833732 10.8796 0.149382C17.5445 -0.867446 23.2871 3.4139 24.962 9.23087C25.3188 10.4687 25.4552 11.7335 25.4708 13.0156C25.4729 13.1915 25.5075 13.3875 25.593 13.5385C27.0001 16.0086 28.417 18.4724 29.8339 20.9369C29.877 21.0124 29.9435 21.0747 29.9993 21.1433C29.9993 21.1897 29.9993 21.2354 29.9993 21.2818C28.8036 21.2742 27.6078 21.2666 26.4121 21.2589C26.2284 21.2576 26.0446 21.2589 25.8262 21.2589C25.8262 21.4259 25.8262 21.5492 25.8262 21.6732C25.8262 23.2261 25.8326 24.7791 25.8241 26.332C25.8128 28.516 24.1337 29.8618 22.4546 29.8764C22.1415 29.8791 21.8285 29.877 21.4673 29.877C21.4673 31.2928 21.4673 32.647 21.4673 34.0012C20.9974 34.0012 20.5274 34.0012 20.0575 34.0012C20.0483 32.8153 20.0391 31.6302 20.0299 30.4443C20.0285 30.2975 20.0299 30.15 20.0299 29.9616C19.8384 29.9616 19.6886 29.9629 19.5388 29.9616C18.4589 29.9491 17.3756 29.9809 16.2993 29.9103C15.2343 29.841 14.2979 28.8131 14.2732 27.8032C14.2717 27.7478 14.2838 27.6924 14.2937 27.6037C14.712 27.6037 15.1212 27.5933 15.5297 27.6134C15.6046 27.6169 15.7085 27.7346 15.7389 27.8205C15.9014 28.2784 16.1996 28.5298 16.7028 28.5326C18.5826 28.5416 20.4624 28.5548 22.3415 28.5284C23.4927 28.5125 24.3563 27.6023 24.3598 26.4615C24.3662 24.4113 24.362 22.361 24.362 20.3107C24.362 20.1867 24.362 20.0627 24.362 19.9055C25.3959 19.9055 26.3987 19.9055 27.4502 19.9055C27.3746 19.7607 27.3266 19.6596 27.2714 19.5626C26.2517 17.7638 25.2376 15.9615 24.2037 14.1702C24.0114 13.8371 23.9238 13.5101 23.9302 13.1285C23.9676 10.957 23.5069 8.89562 22.3797 7.01435C20.5338 3.9327 17.8222 2.03896 14.1954 1.52847C8.37083 0.709052 2.65506 4.75628 1.60491 10.4299C1.21552 12.5342 1.43601 14.6205 1.96179 16.6874C2.82043 20.0634 3.66564 23.4429 4.4953 26.8259C4.86702 28.3407 5.02108 29.8867 5.03027 31.4445C5.03522 32.2965 5.03663 33.1485 5.04016 34.0005C4.5483 33.9998 4.05432 33.9998 3.56105 33.9998Z" fill="#3C4852" fill-opacity="0.75"/>
<path d="M14.7169 18.2541C15.0576 18.2541 15.348 18.2541 15.6717 18.2541C15.6717 18.7299 15.6717 19.1829 15.6717 19.6886C15.3756 19.6886 15.0597 19.7183 14.7523 19.6809C14.4032 19.6387 14.2724 19.7855 14.2173 20.0938C14.1502 20.4664 14.054 20.8335 13.9579 21.2581C13.6569 21.2581 13.3459 21.2581 13.0343 21.2581C12.5884 21.2581 12.1417 21.2471 11.6958 21.2623C11.4527 21.2706 11.3488 21.209 11.3107 20.9506C11.2499 20.5336 11.1255 20.1256 11.0223 19.6899C10.5573 19.6899 10.1156 19.6899 9.65274 19.6899C9.65274 19.2065 9.65274 18.7535 9.65274 18.2568C9.95238 18.2568 10.2386 18.2568 10.5594 18.2568C10.2817 17.2878 9.84001 16.4566 9.22307 15.7258C8.3291 14.6675 7.88812 13.4872 7.99907 12.097C8.16161 10.0543 10.0393 8.22224 12.1149 7.99782C14.7925 7.70828 17.2398 9.73016 17.3473 12.4897C17.3918 13.6278 16.9967 14.6418 16.254 15.509C15.6356 16.2308 15.1318 17.0087 14.8286 17.905C14.794 18.0026 14.765 18.1003 14.7169 18.2541Z" fill="#3C4852" fill-opacity="0.75"/>
<path d="M18.9006 11.9023C19.4321 11.9023 19.9317 11.9023 20.454 11.9023C20.454 12.3692 20.454 12.8208 20.454 13.2994C19.9465 13.2994 19.4384 13.2994 18.9006 13.2994C18.9006 12.8388 18.9006 12.3713 18.9006 11.9023Z" fill="#3C4852" fill-opacity="0.75"/>
<path d="M11.9714 4.91016C12.4414 4.91016 12.8944 4.91016 13.4053 4.91016C13.4053 5.37701 13.4117 5.84317 13.3968 6.30795C13.3954 6.3599 13.2795 6.45064 13.2145 6.45271C12.8068 6.46588 12.3983 6.45964 11.9714 6.45964C11.9714 5.9256 11.9714 5.42619 11.9714 4.91016Z" fill="#3C4852" fill-opacity="0.75"/>
<path d="M4.81897 11.9023C5.36666 11.9023 5.85499 11.9023 6.36593 11.9023C6.36593 12.3699 6.36593 12.8222 6.36593 13.3001C5.85781 13.3001 5.3497 13.3001 4.81897 13.3001C4.81897 12.8354 4.81897 12.3727 4.81897 11.9023Z" fill="#3C4852" fill-opacity="0.75"/>
<path d="M7.71785 8.64439C7.39276 8.32092 7.03306 7.96351 6.69031 7.62203C6.99843 7.31864 7.32634 6.99586 7.64223 6.68555C7.97508 7.0208 8.33126 7.38029 8.6627 7.71415C8.37366 7.99883 8.0401 8.32646 7.71785 8.64439Z" fill="#3C4852" fill-opacity="0.75"/>
<path d="M17.5239 8.70793C17.2186 8.41008 16.8886 8.08661 16.577 7.78253C16.931 7.42858 17.29 7.06909 17.6504 6.70752C17.9685 7.03376 18.2886 7.36278 18.596 7.67863C18.2589 8.0028 17.8935 8.35328 17.5239 8.70793Z" fill="#3C4852" fill-opacity="0.75"/>
</g>
<defs>
<clipPath id="clip0_36_132">
<rect width="30" height="34" fill="white"/>
</clipPath>
</defs>
</svg>
