<svg width="34" height="34" viewBox="0 0 34 34" fill="none" xmlns="http://www.w3.org/2000/svg">
<g clip-path="url(#clip0_36_28)">
<path d="M10.0552 34.0002C10.3347 31.6047 11.5379 29.7978 13.6299 28.6334C17.8779 26.2691 23.1942 28.9128 23.9178 33.7172C23.932 33.8101 23.9292 33.9052 23.9349 33.9995C19.3081 34.0002 14.682 34.0002 10.0552 34.0002Z" fill="#3C4852" fill-opacity="0.75"/>
<path d="M0 14.4675C0.114215 14.1008 0.20502 13.725 0.346903 13.369C1.15138 11.3493 3.16327 10.1885 5.39863 10.4416C7.41123 10.6693 9.11027 12.3556 9.42667 14.4292C9.57919 15.4283 9.47491 16.3942 8.94569 17.2601C8.15682 18.55 7.61767 19.9094 7.59568 21.4653C7.10051 21.4653 6.63584 21.4653 6.13996 21.4653C6.13996 19.9421 6.13996 18.4174 6.13996 16.8551C6.34498 16.8452 6.55284 16.8388 6.7607 16.8247C7.68648 16.7608 8.34765 16.0233 8.30935 15.1007C8.27175 14.2022 7.55098 13.5229 6.64223 13.5293C5.73773 13.5356 5.04179 14.22 5.01129 15.1362C5.0049 15.3206 5.01058 15.5056 5.01058 15.7092C4.81336 15.7092 4.66651 15.7092 4.47214 15.7092C4.47214 15.5071 4.47639 15.322 4.47143 15.1369C4.44872 14.2306 3.74286 13.5363 2.83907 13.5293C1.91896 13.5222 1.19465 14.2143 1.1606 15.134C1.12797 16.0049 1.80049 16.7544 2.68158 16.8197C2.89085 16.8353 3.10226 16.8218 3.33849 16.8218C3.33849 18.3933 3.33849 19.9187 3.33849 21.4696C2.87596 21.4696 2.42193 21.4696 1.92393 21.4696C1.86646 21.0448 1.82319 20.6044 1.74515 20.1697C1.59831 19.3513 1.31099 18.5819 0.871868 17.8742C0.472469 17.231 0.163874 16.553 0 15.812C0 15.3638 0 14.9156 0 14.4675Z" fill="#3C4852" fill-opacity="0.75"/>
<path d="M22.3976 2.6771C22.2756 2.95225 22.1706 3.21534 22.0429 3.46638C21.9485 3.65218 21.962 3.80039 22.0585 3.98973C22.2387 4.3443 22.3947 4.7159 22.5182 5.09387C22.5948 5.32718 22.7062 5.46263 22.941 5.54914C23.7369 5.84344 23.7348 5.85266 23.7327 6.68874C23.732 7.00644 23.8327 7.39576 23.6852 7.62198C23.5419 7.84252 23.1325 7.87869 22.858 8.02973C22.7331 8.09852 22.6196 8.23326 22.5586 8.36445C22.3805 8.74739 22.2557 9.15586 22.062 9.52958C21.9549 9.73594 21.962 9.88699 22.0521 10.0855C22.4146 10.8833 22.411 10.8876 21.8095 11.484C21.5846 11.7074 21.3753 12.0513 21.1121 12.1031C20.8518 12.1541 20.5382 11.8896 20.2374 11.796C20.1111 11.7563 19.9458 11.7655 19.8203 11.8123C19.4138 11.9648 19.0115 12.1314 18.6214 12.3215C18.4724 12.3945 18.3064 12.5236 18.2447 12.6683C17.89 13.5022 17.8999 13.5058 16.977 13.5058C16.0873 13.5058 16.0973 13.5015 15.744 12.6704C15.6823 12.5257 15.517 12.3959 15.368 12.3229C15.0637 12.1726 14.7118 12.1066 14.4273 11.9293C14.0847 11.7159 13.803 11.7364 13.4568 11.9102C12.8815 12.1988 12.8709 12.1782 12.4055 11.7116C12.2388 11.545 12.0877 11.357 11.9011 11.2159C11.6159 11.0011 11.5542 10.7699 11.7564 10.472C11.7826 10.4337 11.7926 10.3848 11.8174 10.3451C12.0316 9.99903 12.077 9.67141 11.8138 9.31045C11.6727 9.11685 11.5734 8.86794 11.5315 8.63109C11.4535 8.18433 11.1917 7.96024 10.7753 7.88436C10.3553 7.80777 10.1723 7.57943 10.2531 7.1511C10.268 7.07168 10.268 6.98374 10.2531 6.90432C10.1091 6.13844 10.3276 5.61864 11.1711 5.48248C11.2633 5.46759 11.3627 5.3286 11.4088 5.22506C11.6017 4.79745 11.7862 4.36487 11.9493 3.9252C11.9955 3.80039 12.0004 3.62736 11.9508 3.50609C11.5932 2.63242 11.5868 2.63455 12.2565 1.96512C12.8652 1.35667 12.868 1.351 13.6803 1.7155C13.8825 1.80627 14.0386 1.79705 14.2386 1.69281C14.5813 1.5141 14.9409 1.35525 15.3105 1.24675C15.5673 1.17158 15.6958 1.04323 15.7851 0.800701C16.0689 0.027023 16.0781 0.0284413 16.9018 0.0312779C17.2309 0.0326962 17.6303 -0.0672934 17.8694 0.0830456C18.0893 0.221329 18.1205 0.641852 18.266 0.921965C18.3263 1.03827 18.4532 1.14393 18.5753 1.19924C18.9598 1.3744 19.3684 1.49921 19.7429 1.69139C19.9593 1.80272 20.1239 1.80202 20.3339 1.70557C21.1128 1.34745 21.1157 1.35313 21.7258 1.96299C21.901 2.13815 22.0776 2.31189 22.25 2.48989C22.3082 2.54591 22.35 2.61399 22.3976 2.6771ZM16.9798 10.4295C18.9846 10.4422 20.6503 8.78639 20.6602 6.77171C20.6694 4.77334 19.0499 3.1423 17.0287 3.11464C15.0112 3.08699 13.3625 4.70455 13.332 6.74051C13.3015 8.73321 14.9672 10.4167 16.9798 10.4295Z" fill="#3C4852" fill-opacity="0.75"/>
<path d="M25.0082 15.2466C25.409 15.2473 25.8105 15.2487 26.2114 15.2466C26.6916 15.2437 26.9023 15.0962 27.0485 14.6473C27.2925 13.8985 27.5294 13.1475 27.7714 12.3979C27.9196 11.9391 28.1332 11.7569 28.5049 11.7618C28.8582 11.7668 29.0632 11.9448 29.2086 12.3887C29.4463 13.1149 29.6768 13.8439 29.9138 14.57C30.0968 15.1317 30.2621 15.2473 30.8694 15.2466C31.6362 15.2466 32.4031 15.2522 33.17 15.2402C33.5396 15.2338 33.8184 15.3487 33.9532 15.7103C34.0724 16.0295 33.9667 16.3082 33.6233 16.5606C32.9777 17.035 32.3251 17.5009 31.6767 17.9718C31.2624 18.2732 31.1929 18.4824 31.3503 18.9738C31.5944 19.7355 31.8448 20.4942 32.0874 21.2559C32.218 21.6643 32.1463 21.9388 31.8682 22.1423C31.605 22.3352 31.2844 22.3153 30.9538 22.0749C30.3146 21.6111 29.6797 21.1417 29.0405 20.6772C28.6177 20.3701 28.3715 20.3716 27.9544 20.6744C27.3251 21.1318 26.6973 21.5913 26.0674 22.048C25.7027 22.3118 25.3998 22.3416 25.1253 22.1473C24.8308 21.9388 24.767 21.6587 24.916 21.1977C25.148 20.4822 25.3835 19.7674 25.6176 19.0525C25.8034 18.4831 25.7417 18.2852 25.2629 17.9371C24.6336 17.4797 24.0008 17.0265 23.373 16.5677C23.0261 16.3145 22.9076 16.0117 23.0403 15.6876C23.1779 15.3508 23.4461 15.2281 23.8043 15.243C24.2051 15.2586 24.6067 15.2459 25.0082 15.2466Z" fill="#3C4852" fill-opacity="0.75"/>
<path d="M20.5318 23.5579C20.5233 25.4974 18.9292 27.0674 16.9741 27.0617C15.0168 27.0561 13.4448 25.4548 13.4583 23.4806C13.471 21.5488 15.08 19.9788 17.0337 19.9923C18.9718 20.005 20.5403 21.6035 20.5318 23.5579Z" fill="#3C4852" fill-opacity="0.75"/>
<path d="M6.01511 25.3054C6.01511 25.5656 6.02008 25.789 6.0144 26.0117C6.00163 26.4783 5.71999 26.7946 5.25675 26.8258C4.91623 26.8492 4.57217 26.8485 4.23165 26.8272C3.76344 26.7981 3.4818 26.4861 3.47187 26.0195C3.4669 25.7848 3.47116 25.55 3.47116 25.3054C2.49784 25.1586 2.7057 24.4083 2.67803 23.7921C2.01473 23.558 1.87924 23.3524 1.9296 22.6411C3.79323 22.6411 5.65899 22.6411 7.52545 22.6411C7.66378 23.2623 7.46444 23.5836 6.80398 23.7779C6.76638 24.3892 6.99552 25.1472 6.01511 25.3054Z" fill="#3C4852" fill-opacity="0.75"/>
<path d="M29.0455 22.577C29.0086 22.6876 28.9809 22.8018 28.9341 22.9074C27.7919 25.4681 26.0262 27.4779 23.6156 28.9167C23.2396 29.1415 22.9055 29.082 22.7274 28.7713C22.5572 28.4735 22.6593 28.1657 23.024 27.9466C25.2217 26.6269 26.8392 24.7966 27.8863 22.4585C28.0551 22.0813 28.297 21.9182 28.59 22.0458C28.7865 22.1309 28.9298 22.3394 29.0973 22.4926C29.0802 22.5209 29.0632 22.5486 29.0455 22.577Z" fill="#3C4852" fill-opacity="0.75"/>
<path d="M7.9284 25.6338C8.13129 25.7565 8.30155 25.8196 8.41718 25.9366C9.18973 26.7237 10.0488 27.3974 10.9931 27.9662C11.3336 28.1711 11.4279 28.481 11.2633 28.7703C11.0924 29.0717 10.7547 29.1426 10.4042 28.9377C9.35928 28.3271 8.42286 27.5783 7.58717 26.7039C7.40059 26.5089 7.29773 26.272 7.45664 26.0345C7.56163 25.877 7.75317 25.7777 7.9284 25.6338Z" fill="#3C4852" fill-opacity="0.75"/>
<path d="M27.6512 10.4516C27.532 10.5877 27.425 10.8154 27.2619 10.8671C27.0832 10.9231 26.7782 10.8898 26.6584 10.7678C26.123 10.2232 25.6273 9.63818 25.1316 9.05526C24.9274 8.81486 24.9543 8.54467 25.1727 8.322C25.3918 8.09862 25.6968 8.05394 25.9038 8.26811C26.4669 8.85102 26.9895 9.47294 27.52 10.0878C27.5838 10.1615 27.5923 10.2821 27.6512 10.4516Z" fill="#3C4852" fill-opacity="0.75"/>
<path d="M4.49129 21.4664C4.49129 19.9333 4.49129 18.4164 4.49129 16.8662C4.64588 16.8662 4.80118 16.8662 4.9884 16.8662C4.99478 16.9846 5.00613 17.0981 5.00613 17.2116C5.00755 18.5079 5.00755 19.8035 5.00684 21.0998C5.00684 21.5345 5.00542 21.5345 4.49129 21.4664Z" fill="#3C4852" fill-opacity="0.75"/>
<path d="M9.02873 8.65214C8.96916 8.81525 8.95781 8.93438 8.89328 9.00601C8.65075 9.27477 8.40893 9.55063 8.13166 9.7811C7.9104 9.96406 7.63809 9.93499 7.42748 9.73288C7.20622 9.52014 7.16013 9.24854 7.35869 9.00601C7.58065 8.73582 7.82034 8.46493 8.10187 8.26566C8.23945 8.1678 8.51672 8.16992 8.68408 8.23942C8.83584 8.30253 8.92448 8.51882 9.02873 8.65214Z" fill="#3C4852" fill-opacity="0.75"/>
<path d="M3.35229 15.7167C2.93389 15.7217 2.50698 15.8287 2.33892 15.3657C2.28219 15.2082 2.34601 14.9118 2.46585 14.8111C2.60201 14.6969 2.90269 14.6445 3.06083 14.7182C3.48135 14.9132 3.35087 15.3253 3.35229 15.7167Z" fill="#3C4852" fill-opacity="0.75"/>
<path d="M6.16051 15.7078C6.04918 15.1774 6.11513 14.8178 6.4073 14.7235C6.58671 14.6654 6.85122 14.7023 7.01432 14.8008C7.23203 14.9327 7.26962 15.1951 7.12991 15.4277C6.89377 15.8199 6.51508 15.7291 6.16051 15.7078Z" fill="#3C4852" fill-opacity="0.75"/>
<path d="M16.2654 7.10926C16.9784 6.46393 17.6339 5.87251 18.2879 5.27966C18.5142 5.07472 18.7604 5.01728 19.0279 5.18534C19.2712 5.33852 19.3301 5.57537 19.2499 5.8335C19.2137 5.94909 19.1236 6.06043 19.0314 6.14482C18.2667 6.84616 17.4991 7.54467 16.7258 8.23609C16.3995 8.52826 16.1327 8.52188 15.8241 8.22616C15.5177 7.93257 15.2183 7.63119 14.9232 7.32625C14.6543 7.04827 14.6352 6.71284 14.8608 6.47599C15.0977 6.22779 15.446 6.24126 15.7355 6.52563C15.91 6.69866 16.0675 6.89084 16.2654 7.10926Z" fill="#3C4852" fill-opacity="0.75"/>
</g>
<defs>
<clipPath id="clip0_36_28">
<rect width="34" height="34" fill="white"/>
</clipPath>
</defs>
</svg>
