<svg width="35" height="35" viewBox="0 0 35 35" fill="none" xmlns="http://www.w3.org/2000/svg">
<path d="M0 30.6248C0.170194 29.8964 0.287795 29.1504 0.522268 28.4425C1.09786 26.7044 2.14678 25.284 3.58722 24.1538C3.63323 24.1173 3.68509 24.088 3.7333 24.0552C6.44106 27.6615 12.0662 27.8178 14.9456 24.0479C16.2312 25.0356 17.2144 26.258 17.8725 27.7396C18.4014 28.9298 18.6702 30.1762 18.6658 31.4804C18.6599 33.179 17.511 34.5847 15.8426 34.9318C15.7856 34.9435 15.7323 34.9756 15.6768 34.9983C11.4475 34.9983 7.21899 34.9983 2.98971 34.9983C2.15043 34.793 1.40392 34.4328 0.827594 33.7599C0.390058 33.2485 0.170924 32.6413 0 32.0086C0 31.5483 0 31.0866 0 30.6248Z" fill="#3C4852" fill-opacity="0.75"/>
<path d="M32.664 24.4988C32.4683 24.4988 32.3236 24.4988 32.1798 24.4988C27.8058 24.4988 23.4327 24.4966 19.0588 24.5039C18.7571 24.5046 18.573 24.4118 18.3568 24.1832C17.6841 23.4701 16.9653 22.7994 16.2436 22.1345C16.0778 21.9818 16.015 21.8752 16.0734 21.6501C17.1311 17.5762 14.5432 13.5761 10.4008 12.931C9.69227 12.8207 8.9516 12.9156 8.16784 12.9156C8.16784 12.7819 8.16784 12.6556 8.16784 12.5292C8.16784 9.34588 8.16637 6.1626 8.16857 2.97932C8.17003 1.25361 9.42931 0.00133825 11.1634 0.000607638C17.3349 -0.000853588 23.5064 -0.000853588 29.678 0.000607638C31.4077 0.00133825 32.6618 1.25726 32.6626 2.99027C32.664 10.037 32.6633 17.0838 32.6633 24.1313C32.664 24.2387 32.664 24.3454 32.664 24.4988ZM22.1668 18.6561C22.1668 18.4902 22.1668 18.3587 22.1668 18.2279C22.1668 15.749 22.1668 13.27 22.1668 10.7903C22.1668 10.669 22.1727 10.5463 22.161 10.4257C22.104 9.86023 21.6979 9.43136 21.1427 9.34295C20.6723 9.26843 20.1252 9.57017 19.9441 10.0465C19.8645 10.2555 19.8367 10.4951 19.836 10.7209C19.8287 13.2364 19.8316 15.7519 19.8316 18.2674C19.8316 18.3952 19.8316 18.5224 19.8316 18.6641C19.4357 18.6641 19.096 18.6605 18.7564 18.6648C18.042 18.6751 17.5117 19.1631 17.5 19.8163C17.4883 20.4768 18.0318 20.9977 18.7607 20.9984C22.1997 21.0021 25.6386 21.0028 29.0776 20.9984C29.7919 20.9977 30.3208 20.4994 30.331 19.8462C30.3412 19.1843 29.7992 18.6751 29.0688 18.6656C28.7211 18.6612 28.3727 18.6648 28.0001 18.6648C28.0001 18.4763 28.0001 18.3324 28.0001 18.1885C28.0001 13.7895 28.0001 9.38971 28.0001 4.99069C28.0001 4.85699 28.0067 4.72256 27.9936 4.58959C27.9351 4.01094 27.5034 3.57111 26.9373 3.50463C26.464 3.4491 25.922 3.77276 25.7584 4.24693C25.689 4.44785 25.6686 4.67507 25.6678 4.88987C25.6627 9.33784 25.6642 13.7858 25.6642 18.233C25.6642 18.3726 25.6642 18.5121 25.6642 18.6553C24.4779 18.6561 23.3494 18.6561 22.1668 18.6561Z" fill="#3C4852" fill-opacity="0.75"/>
<path d="M4.66828 19.8054C4.67193 17.2227 6.75954 15.1624 9.36869 15.1675C11.9464 15.1726 14.0048 17.2665 13.9983 19.8777C13.9917 22.4488 11.8895 24.5069 9.27885 24.4981C6.72594 24.4901 4.66463 22.3918 4.66828 19.8054Z" fill="#3C4852" fill-opacity="0.75"/>
<path d="M21.0025 31.4805C20.9652 29.8754 20.6679 28.3513 20.0237 26.8623C25.0221 26.8623 29.9796 26.8623 34.9963 26.8623C34.9963 27.0084 34.9963 27.1721 34.9963 27.3357C34.9963 28.1621 35.0044 28.9877 34.9934 29.8132C34.9817 30.7243 34.2279 31.4922 33.32 31.4937C29.2755 31.501 25.231 31.4966 21.1865 31.4966C21.1405 31.4973 21.0931 31.4893 21.0025 31.4805Z" fill="#3C4852" fill-opacity="0.75"/>
</svg>
