<svg width="34" height="34" viewBox="0 0 34 34" fill="none" xmlns="http://www.w3.org/2000/svg">
<g clip-path="url(#clip0_36_65)">
<path d="M3.42991 7.01221C4.42982 7.26385 5.40059 7.50705 6.37136 7.75332C8.62422 8.32642 10.8717 8.9233 13.1338 9.45881C13.6077 9.57082 14.1544 9.5455 14.6336 9.43502C17.7423 8.71616 20.8409 7.95586 23.9426 7.21014C24.0385 7.18713 24.1382 7.18022 24.2701 7.16104C24.2701 7.57533 24.2701 7.96891 24.2701 8.36248C24.2701 9.96976 24.2731 11.577 24.2693 13.1843C24.2647 14.8745 23.4059 16.0138 21.7871 16.527C18.4493 17.5865 15.0408 17.8811 11.5626 17.5359C9.6318 17.3441 7.74317 16.9536 5.87754 16.4373C4.43518 16.0383 3.43374 14.8208 3.40537 13.3055C3.36703 11.2656 3.3954 9.22404 3.39617 7.18329C3.39617 7.1457 3.40997 7.10811 3.42991 7.01221Z" fill="#3C4852" fill-opacity="0.75"/>
<path d="M26.9354 6.99295C26.9354 6.3485 26.9354 5.70021 26.9354 4.99823C26.3021 5.14553 25.6894 5.28362 25.079 5.43016C21.4451 6.30093 17.8128 7.17707 14.1774 8.03941C13.9527 8.09234 13.6928 8.09081 13.4689 8.0348C9.20315 6.96302 4.93973 5.87974 0.676312 4.79875C0.2262 4.68444 0.00152662 4.43126 -6.98541e-06 4.04229C-0.00154059 3.64335 0.210097 3.39938 0.666344 3.28353C4.94127 2.19641 9.21542 1.10545 13.4949 0.0344419C13.7741 -0.0353733 14.1045 0.0098915 14.3929 0.0789395C18.8311 1.13768 23.2655 2.20792 27.7015 3.2774C28.2359 3.40629 28.433 3.64258 28.4384 4.18806C28.4468 5.00436 28.4499 5.82143 28.4361 6.63773C28.4315 6.89551 28.4974 7.03898 28.7466 7.1648C30.0318 7.81615 30.4037 9.34902 29.6108 10.5574C29.5111 10.7093 29.4582 10.9364 29.4797 11.1174C29.5702 11.8884 29.6852 12.6572 29.8125 13.4236C29.9896 14.4877 29.347 15.3362 28.275 15.3969C27.8311 15.4214 27.381 15.4199 26.9385 15.3784C26.072 15.2979 25.4371 14.4992 25.5452 13.6377C25.6549 12.7661 25.7937 11.8984 25.9095 11.0276C25.9248 10.9133 25.9171 10.7591 25.852 10.6778C24.8536 9.42727 25.388 7.61591 26.8672 7.04128C26.8894 7.03131 26.9078 7.01213 26.9354 6.99295Z" fill="#3C4852" fill-opacity="0.75"/>
<path d="M30.6054 33.9993C30.5187 33.9993 30.393 33.9993 30.2664 33.9993C27.1417 33.9993 24.0178 34.0001 20.893 33.9993C19.8809 33.9993 19.4614 33.5751 19.4614 32.5531C19.4607 29.0056 19.4607 25.4581 19.4614 21.9098C19.4614 20.8833 19.8456 20.4935 20.8608 20.4928C23.6029 20.492 26.345 20.492 29.0863 20.4928C30.1192 20.4928 30.4758 20.8557 30.4758 21.9044C30.4765 25.4397 30.4712 28.9742 30.4811 32.5094C30.4834 32.9881 30.5593 33.4669 30.6054 33.9993ZM25.0897 27.9799C26.0835 27.9799 27.0781 27.9806 28.0718 27.9791C28.1991 27.9791 28.3272 27.9783 28.4529 27.9607C28.8517 27.9047 29.0978 27.6216 29.0932 27.2357C29.0886 26.8667 28.8494 26.592 28.469 26.5352C28.331 26.5145 28.1899 26.5137 28.0504 26.5137C26.0751 26.5122 24.0998 26.5122 22.1245 26.5137C21.9719 26.5137 21.8178 26.5184 21.6683 26.5421C21.3585 26.5928 21.1737 26.7846 21.1031 27.0876C20.9874 27.5832 21.327 27.9691 21.9175 27.976C22.9741 27.9875 24.0316 27.9791 25.0897 27.9799ZM25.0514 24.5796C26.1219 24.5796 27.1931 24.5911 28.2635 24.5697C28.4736 24.5651 28.716 24.4776 28.8823 24.3495C29.1239 24.163 29.1569 23.8692 29.0418 23.583C28.8985 23.2263 28.6017 23.1135 28.2428 23.1135C26.1395 23.1143 24.0362 23.1112 21.9328 23.1151C21.4229 23.1158 21.0801 23.4166 21.0748 23.8447C21.0686 24.2835 21.3961 24.5758 21.916 24.5781C22.9603 24.5835 24.0055 24.5796 25.0514 24.5796ZM25.092 29.9155C24.0339 29.9155 22.9757 29.9132 21.9183 29.9163C21.3984 29.9178 21.0702 30.2055 21.0748 30.6444C21.0794 31.0602 21.4129 31.374 21.8922 31.3755C24.0208 31.3816 26.1502 31.3816 28.2789 31.3755C28.7919 31.374 29.1063 31.0648 29.094 30.6137C29.0817 30.1833 28.7727 29.9178 28.2666 29.9163C27.2084 29.9132 26.1502 29.9155 25.092 29.9155Z" fill="#3C4852" fill-opacity="0.75"/>
<path d="M4.04947 23.9092C5.21961 23.9092 6.33454 23.9092 7.44027 23.9092C7.57752 25.04 7.71248 26.1486 7.84974 27.2787C7.11208 27.5825 6.34144 27.9002 5.52403 28.237C4.67595 26.9504 4.22583 25.5042 4.04947 23.9092Z" fill="#3C4852" fill-opacity="0.75"/>
<path d="M7.41957 22.014C6.33838 22.014 5.22345 22.014 4.06097 22.014C4.21127 20.4458 4.68822 19.0111 5.5133 17.6992C6.2755 18.0015 7.01623 18.2915 7.75236 18.593C7.81064 18.6168 7.87811 18.7257 7.87045 18.7856C7.72782 19.8543 7.57446 20.9215 7.41957 22.014Z" fill="#3C4852" fill-opacity="0.75"/>
<path d="M9.34041 23.9106C10.5512 23.9106 11.6922 23.9106 12.87 23.9106C12.87 24.7523 12.87 25.5962 12.87 26.4332C11.8256 26.5552 10.7935 26.6764 9.664 26.8084C9.55895 25.8639 9.45159 24.9026 9.34041 23.9106Z" fill="#3C4852" fill-opacity="0.75"/>
<path d="M9.65556 19.1191C10.453 19.2181 11.1685 19.3102 11.8847 19.3938C12.1369 19.423 12.3938 19.413 12.643 19.4544C12.7373 19.4698 12.8899 19.5772 12.8915 19.6454C12.9091 20.4311 12.903 21.2167 12.903 22.0153C11.7068 22.0153 10.5558 22.0153 9.34424 22.0153C9.44852 21.0463 9.54974 20.1058 9.65556 19.1191Z" fill="#3C4852" fill-opacity="0.75"/>
<path d="M17.9194 19.1387C18.3281 20.0954 18.072 21.036 17.9577 22.0049C16.9325 22.0049 15.8828 22.0049 14.8039 22.0049C14.8039 21.1817 14.8039 20.3485 14.8039 19.5054C15.8391 19.3842 16.8811 19.2614 17.9194 19.1387Z" fill="#3C4852" fill-opacity="0.75"/>
<path d="M14.7901 26.4301C14.7901 25.5861 14.7901 24.7606 14.7901 23.9121C15.8544 23.9121 16.9034 23.9121 17.9715 23.9121C17.9715 24.8849 17.9715 25.8439 17.9715 26.8045C16.9003 26.6786 15.859 26.5559 14.7901 26.4301Z" fill="#3C4852" fill-opacity="0.75"/>
<path d="M10.1755 28.6224C11.1217 28.5104 11.9866 28.4083 12.88 28.3032C12.88 29.7417 12.88 31.1196 12.88 32.575C11.4169 31.6129 10.7651 30.1898 10.1755 28.6224Z" fill="#3C4852" fill-opacity="0.75"/>
<path d="M14.7962 28.2988C15.7056 28.4085 16.5729 28.5129 17.4915 28.6234C16.9126 30.1884 16.247 31.6047 14.7962 32.5806C14.7962 31.1252 14.7962 29.7481 14.7962 28.2988Z" fill="#3C4852" fill-opacity="0.75"/>
<path d="M32.9433 31.937C32.9947 31.9363 33.0453 31.9363 33.0967 31.937C34.1211 31.9531 34.0053 31.7713 33.9877 32.985C33.9785 33.6341 33.487 34.0461 32.8513 33.9839C32.4641 33.9463 32.0768 33.6525 32.0094 33.2597C31.945 32.8868 31.9526 32.4994 31.9557 32.1181C31.9565 32.0575 32.0968 31.9539 32.1796 31.9462C32.4319 31.9225 32.688 31.937 32.9433 31.937Z" fill="#3C4852" fill-opacity="0.75"/>
<path d="M9.56048 31.8396C8.48773 31.3255 7.5576 30.6504 6.68958 29.7497C7.27925 29.5195 7.81371 29.3109 8.32746 29.1099C8.74997 30.0435 9.14871 30.9266 9.56048 31.8396Z" fill="#3C4852" fill-opacity="0.75"/>
<path d="M19.7835 18.6719C20.5879 18.3382 21.357 18.0198 22.1744 17.6807C22.3921 18.0934 22.6183 18.5207 22.8906 19.0363C21.8201 19.0363 20.8524 19.0363 19.854 19.0363C19.8372 18.9488 19.8111 18.8161 19.7835 18.6719Z" fill="#3C4852" fill-opacity="0.75"/>
</g>
<defs>
<clipPath id="clip0_36_65">
<rect width="34" height="34" fill="white"/>
</clipPath>
</defs>
</svg>
