<svg width="117" height="24" viewBox="0 0 117 24" fill="none" xmlns="http://www.w3.org/2000/svg">
<path d="M30.9443 2.48828H33.4167V13.2441H30.9443V2.48828Z" fill="#0F5644"/>
<path d="M35.6504 2.48828H39.0798L41.4725 8.34781L43.8651 2.48828H47.2946V13.2441H44.8222V5.53845L42.5093 11.1572H40.1964L37.8835 5.53845V13.1639H35.4111V2.48828H35.6504Z" fill="#0F5644"/>
<path d="M52.4783 2.48828H55.509L59.4169 13.2441H56.9445L56.2268 11.3177H51.7605L51.0427 13.1639H48.5703L52.4783 2.48828ZM55.509 9.31102L53.9936 5.13711L52.4783 9.31102H55.509Z" fill="#0F5644"/>
<path d="M64.9995 2.48828C66.435 2.48828 67.4719 2.80935 68.2694 3.37122C69.0669 4.01336 69.386 4.89631 69.386 6.02005C69.386 6.82273 69.1467 7.54514 68.7479 8.10701C68.3492 8.66888 67.7909 9.07022 67.0731 9.31102L69.386 13.2441H66.5148L64.4412 9.63209H63.0056V13.2441H60.5332V2.48828H64.9995ZM64.9197 7.62541C65.5577 7.62541 65.9565 7.46487 66.3553 7.22407C66.6743 6.98326 66.8338 6.66219 66.8338 6.18059C66.8338 5.69898 66.6743 5.37791 66.3553 5.13711C66.0363 4.89631 65.5577 4.73577 64.9197 4.73577H63.0056V7.54514H64.9197V7.62541Z" fill="#0F5644"/>
<path d="M73.6134 4.57524H70.2637V2.48828H79.5152V4.65551H76.0858V13.2441H73.6134V4.57524Z" fill="#0F5644"/>
<path d="M80.7109 2.48828H83.1833V13.2441H80.7109V2.48828Z" fill="#0F5644"/>
<path d="M84.8584 7.78602C84.8584 7.06361 85.0179 6.3412 85.2572 5.6188C85.5762 4.97666 85.975 4.33452 86.4535 3.85291C86.932 3.3713 87.5701 2.96997 88.2081 2.6489C88.8461 2.32783 89.5639 2.24756 90.3615 2.24756C91.0793 2.24756 91.7173 2.32783 92.2756 2.56863C92.9136 2.80943 93.3921 3.05023 93.8707 3.45157C94.3492 3.85291 94.748 4.25425 95.067 4.81612C95.386 5.37799 95.6253 5.93987 95.705 6.58201H92.9934C92.8339 6.02013 92.5148 5.53853 92.0363 5.21746C91.5578 4.89639 90.9995 4.73585 90.3615 4.73585C89.9627 4.73585 89.5639 4.81612 89.1651 4.97666C88.7664 5.13719 88.5271 5.37799 88.2081 5.6188C87.9688 5.8596 87.7296 6.18067 87.5701 6.58201C87.4105 6.98334 87.3308 7.30441 87.3308 7.78602C87.3308 8.18736 87.4105 8.5887 87.5701 8.99003C87.7296 9.39137 87.9688 9.71244 88.2081 9.95324C88.4474 10.194 88.7664 10.4348 89.1651 10.5954C89.5639 10.7559 89.8829 10.8362 90.3615 10.8362C90.9995 10.8362 91.5578 10.6757 92.0363 10.3546C92.5148 10.0335 92.8339 9.55191 92.9934 8.99003H95.705C95.6253 9.63217 95.386 10.194 95.067 10.7559C94.748 11.3178 94.3492 11.7191 93.8707 12.1205C93.3921 12.5218 92.8339 12.8429 92.2756 13.0034C91.7173 13.1639 90.9995 13.3245 90.3615 13.3245C89.5639 13.3245 88.8461 13.1639 88.2081 12.9231C87.5701 12.6021 86.932 12.2007 86.4535 11.7191C85.975 11.2375 85.5762 10.5954 85.2572 9.95324C84.9382 9.3111 84.8584 8.5887 84.8584 7.78602Z" fill="#0F5644"/>
<path d="M101.846 13.3244C100.331 13.3244 99.2146 12.9231 98.417 12.2007C97.6195 11.4782 97.2207 10.3545 97.2207 8.90969V2.48828H99.6931V8.74915C99.6931 9.47156 99.8526 10.0334 100.251 10.4348C100.65 10.8361 101.208 10.9966 101.846 10.9966C102.564 10.9966 103.043 10.8361 103.442 10.4348C103.84 10.0334 104 9.47156 104 8.74915V2.48828H106.472V8.98995C106.472 10.4348 106.073 11.4782 105.276 12.2809C104.478 13.0033 103.282 13.3244 101.846 13.3244Z" fill="#0F5644"/>
<path d="M108.306 5.6188C108.306 4.57532 108.705 3.69237 109.423 3.1305C110.141 2.56863 111.177 2.24756 112.533 2.24756C113.889 2.24756 115.006 2.56863 115.644 3.21077C116.282 3.85291 116.681 4.73585 116.76 5.77933H114.288C114.288 5.29773 114.128 4.97666 113.889 4.73585C113.57 4.49505 113.171 4.33452 112.533 4.33452C111.975 4.33452 111.576 4.41478 111.337 4.65559C111.018 4.81612 110.938 5.13719 110.938 5.45826C110.938 5.69906 111.018 5.8596 111.098 6.02013C111.177 6.18067 111.337 6.3412 111.576 6.42147C111.736 6.50174 111.975 6.58201 112.294 6.66227C112.533 6.74254 112.852 6.82281 113.092 6.82281C113.57 6.90308 113.969 6.98334 114.447 7.14388C114.926 7.22415 115.325 7.38468 115.724 7.62549C116.122 7.86629 116.441 8.10709 116.681 8.50843C116.92 8.90977 117.079 9.39137 117.079 10.0335C117.079 10.9967 116.76 11.7994 116.043 12.3613C115.325 12.9231 114.208 13.2442 112.773 13.2442C111.257 13.2442 110.141 12.9231 109.343 12.281C108.546 11.6389 108.227 10.8362 108.227 9.71244H110.699C110.779 10.6757 111.497 11.1573 112.773 11.1573C113.331 11.1573 113.809 11.077 114.128 10.8362C114.447 10.6757 114.607 10.3546 114.607 10.0335C114.607 9.79271 114.527 9.63217 114.447 9.47164C114.288 9.3111 114.128 9.23084 113.969 9.0703C113.73 8.99003 113.49 8.90977 113.251 8.8295C112.932 8.74923 112.693 8.66896 112.374 8.66896C111.975 8.5887 111.497 8.50843 111.018 8.34789C110.539 8.26763 110.141 8.10709 109.822 7.86629C109.423 7.62549 109.184 7.30441 108.944 6.98334C108.386 6.74254 108.306 6.26094 108.306 5.6188Z" fill="#0F5644"/>
<path d="M30.3066 21.6721V15.1704H30.7852V21.1905H33.9754V21.6721H30.3066Z" fill="#0F5644"/>
<path d="M44.9015 21.6721H41.3125V15.1704H44.9015V15.5717H41.7113V17.9798H44.6622V18.4614H41.7113V21.2707H44.9015V21.6721Z" fill="#0F5644"/>
<path d="M55.9083 19.3443H53.1966L52.3193 21.6721H51.8408L54.4727 15.1704H54.7917L57.4236 21.6721H56.8654L55.9083 19.3443ZM53.3562 18.943H55.7488L54.8715 16.6152C54.7917 16.4547 54.712 16.2139 54.6322 15.8928C54.5525 16.2139 54.4727 16.4547 54.393 16.6955L53.3562 18.943Z" fill="#0F5644"/>
<path d="M65 18.8627V21.6721H64.5215V15.1704H66.1166C66.9141 15.1704 67.5522 15.3309 67.9509 15.652C68.3497 15.9731 68.5092 16.3744 68.5092 17.0166C68.5092 17.4179 68.4295 17.8192 68.1902 18.1403C67.9509 18.4614 67.6319 18.6219 67.1534 18.7825L68.9877 21.7524H68.4295L66.7546 18.943H65V18.8627ZM65 18.4614H66.2761C66.8344 18.4614 67.2331 18.3008 67.5522 18.06C67.8712 17.8192 68.0307 17.4179 68.0307 17.0166C68.0307 16.535 67.8712 16.1336 67.5522 15.9731C67.2331 15.7323 66.7546 15.652 66.0368 15.652H64.9203V18.4614H65Z" fill="#0F5644"/>
<path d="M81.1896 21.6718H80.711L76.8031 15.8925C76.8031 16.6149 76.8828 17.0965 76.8828 17.4176V21.6718H76.4043V15.1701H76.8828L80.7908 20.8691C80.7908 20.3072 80.711 19.8256 80.711 19.344V15.0898H81.1896V21.6718Z" fill="#0F5644"/>
<path d="M89.3252 21.6721V15.1704H89.8037V21.6721H89.3252Z" fill="#0F5644"/>
<path d="M102.724 21.6718H102.245L98.3372 15.8925C98.3372 16.6149 98.417 17.0965 98.417 17.4176V21.6718H97.9385V15.1701H98.417L102.325 20.8691C102.325 20.3072 102.245 19.8256 102.245 19.344V15.0898H102.724V21.6718Z" fill="#0F5644"/>
<path d="M113.491 18.381H115.964V21.3509C115.326 21.5917 114.608 21.7522 113.81 21.7522C112.773 21.7522 111.976 21.4312 111.418 20.8693C110.859 20.3074 110.62 19.5047 110.62 18.381C110.62 17.7389 110.78 17.177 111.019 16.6151C111.258 16.0532 111.657 15.7322 112.215 15.4111C112.694 15.1703 113.332 15.0098 113.97 15.0098C114.688 15.0098 115.326 15.1703 115.884 15.4111L115.724 15.8124C115.166 15.5716 114.528 15.4111 113.97 15.4111C113.093 15.4111 112.375 15.6519 111.896 16.2138C111.418 16.7757 111.099 17.4178 111.099 18.381C111.099 19.3442 111.338 20.0666 111.816 20.5482C112.295 21.0298 113.013 21.2706 113.97 21.2706C114.608 21.2706 115.086 21.1904 115.485 21.0298V18.7823H113.491V18.381Z" fill="#0F5644"/>
<path d="M10.7667 13.4048C11.0857 13.4048 11.2452 13.3246 11.4047 13.164C11.5642 13.0838 11.5642 12.843 11.5642 12.7627C11.4047 12.9232 10.5274 13.4851 10.7667 13.4048Z" fill="#0F5644"/>
<path d="M12.7612 12.4415L12.9207 13.0033C12.9207 13.0033 12.9207 13.0836 13.0004 13.3244C13.0004 13.3244 13.5587 13.0033 14.117 12.7625C14.1968 12.7625 14.1968 12.6823 14.2765 12.6823V0H8.77344V13.3244C9.0127 13.485 9.25197 13.5652 9.33172 13.5652C9.49123 13.485 9.65074 13.485 9.96976 13.5652V13.4849C9.96976 13.4849 9.89 13.0836 10.0495 12.8428C10.209 12.602 10.2888 12.4415 10.3685 12.3612C10.4483 12.2809 10.6078 11.9599 10.6078 11.8796C10.6078 11.7993 10.6875 11.6388 10.6078 11.5585C10.6078 11.398 10.8471 11.1572 10.8471 11.1572C10.9268 11.1572 11.0863 10.9967 11.0863 10.9967L11.1661 10.8361C11.1661 10.8361 10.9268 10.9164 10.7673 11.0769C10.7673 11.0769 10.7673 10.8361 10.9268 10.7559C11.0863 10.6756 11.0863 10.5953 11.0863 10.5953C11.0863 10.5953 10.9268 10.515 10.9268 10.3545C10.9268 10.194 11.0066 10.1137 11.0066 9.95318C11.0066 9.87291 11.0066 9.79264 11.0066 9.79264C11.0066 9.79264 11.0863 9.87291 11.1661 9.95318C11.1661 10.0334 11.2458 10.0334 11.2458 10.1137V10.2742C11.2458 10.2742 11.4053 10.194 11.5648 10.194C11.7244 10.194 11.7244 10.194 11.7244 10.194C11.7244 10.194 11.7244 10.0334 11.8041 9.87291C11.8839 9.79264 11.8839 9.71237 11.8839 9.71237C11.8839 9.71237 12.0434 9.87291 12.0434 9.95318C12.1231 10.0334 12.1231 10.1137 12.1231 10.2742C12.1231 10.3545 12.1231 10.4348 12.0434 10.5151C11.9636 10.6756 11.9636 10.6756 12.0434 10.7559C12.1231 10.9164 12.2826 11.1572 12.2826 11.3177C12.2826 11.4783 12.4422 11.7993 12.4422 12.0401C12.6814 12.2809 12.6814 12.3612 12.7612 12.4415Z" fill="#0F5644"/>
<path d="M13.3991 13.9664L13.0801 13.3242C13.1598 13.565 13.3991 14.0466 13.8776 14.6888C14.1966 15.0901 14.2764 15.4914 14.3562 15.8125C14.3562 15.8125 14.2764 15.4112 14.1966 15.1704C14.1169 15.0098 13.9574 14.769 13.9574 14.769L13.8776 14.6888C13.8776 14.6888 13.7979 14.5282 13.6384 14.2874C13.4789 14.1269 13.4789 14.0466 13.3991 13.9664Z" fill="#0F5644"/>
<path d="M14.2767 18.0603V16.6958C14.2767 16.7761 14.1969 16.8563 14.1969 16.8563C14.1969 16.8563 14.1172 17.4985 14.1172 17.8195C14.1969 17.8195 14.2767 17.8998 14.2767 18.0603Z" fill="#0F5644"/>
<path d="M11.4053 19.3446C11.8838 19.9064 12.4421 20.3078 12.4421 20.3078C12.5219 20.2275 12.5219 20.1472 12.6016 20.067C12.6814 19.9064 12.6016 19.7459 12.5219 19.5854C12.4421 19.4248 12.3624 18.7024 12.3624 18.7024L11.6446 17.2576L10.6875 16.9365C10.6875 16.9365 10.4482 17.3379 10.4482 17.4984C10.4482 17.7392 10.9268 18.7827 11.4053 19.3446Z" fill="#0F5644"/>
<path d="M14.0366 20.5485L14.2759 20.3077V19.3445C14.1961 19.184 14.0366 19.0234 13.9568 18.7826C13.7176 18.301 13.4783 16.9365 13.4783 16.9365L12.4415 17.4181C12.4415 17.4181 12.5213 17.5786 12.5213 17.7392C12.5213 17.8997 12.6808 18.3813 12.9998 18.7826C13.239 19.184 13.0795 19.2643 12.9998 19.5051C12.92 19.7459 12.9998 19.9064 13.0795 20.3077C13.1593 20.7091 12.8403 20.7893 12.8403 20.7893C12.8403 20.7893 12.601 20.7091 12.4415 20.7091C12.3617 20.7091 12.2022 20.7091 12.1225 20.7091C11.963 20.7091 11.8832 20.4683 11.8035 20.3077C11.7237 20.1472 11.6439 20.1472 11.6439 20.1472C11.6439 20.1472 11.2452 19.3445 10.6071 18.8629C9.9691 18.3813 10.0489 17.98 10.0489 17.98L8.85254 16.5352V23.8395H14.3556V20.6288L14.0366 20.5485ZM9.88935 19.5051C9.88935 19.6656 9.65009 19.6656 9.65009 19.6656V19.9064L9.57033 20.2275L9.01205 19.8261H9.0918L9.33107 19.5853C9.33107 19.5853 9.41082 19.3445 9.49058 19.2643C9.57033 19.184 9.49058 19.1037 9.49058 18.7826C9.41082 18.4616 9.57033 17.4984 9.57033 17.4984C9.57033 17.4984 10.1286 18.0602 10.0489 18.0602C9.9691 18.1405 9.88935 18.301 9.88935 18.301C9.88935 18.301 9.80959 19.3445 9.88935 19.5051Z" fill="#0F5644"/>
<path d="M9.17156 13.7256L8.85254 13.8861V13.9664C8.93229 13.9664 9.01205 14.0467 9.01205 14.0467C9.01205 14.0467 9.01205 13.8059 9.17156 13.7256Z" fill="#0F5644"/>
<path d="M20.1779 4.97644L20.9755 3.45135L21.773 1.92627L17.7853 8.0266L18.7423 5.61858L17.0675 8.58848C17.0675 8.58848 18.184 6.34099 18.3436 5.85938C18.5031 5.37777 18.8221 4.49483 18.8221 4.49483C18.8221 4.49483 18.9018 4.01323 18.8221 3.93296C18.7423 3.77242 16.3497 9.15035 16.3497 9.15035C16.3497 9.15035 16.9877 7.62527 17.0675 7.14366C17.0675 6.66206 16.908 6.58179 16.908 6.58179C16.908 6.58179 16.6687 8.58848 15.7914 9.55169C14.8344 10.5149 15.2331 11.3978 15.1534 11.6386C15.0736 11.8794 15.0736 12.4413 14.3558 12.6821C13.638 12.9229 13 13.3243 13 13.3243L13.3988 14.0467C13.4785 14.2072 13.5583 14.2875 13.638 14.3677C13.7975 14.6888 13.9571 14.8493 13.9571 14.8493L14.5153 14.7691C14.5153 14.7691 14.6748 14.5283 14.4356 14.2875C14.1963 14.0467 14.0368 13.9664 14.0368 13.8861L13.9571 13.7256C13.9571 13.7256 14.1963 13.8861 14.5951 14.0467C14.9939 14.2072 15.5521 14.2875 15.5521 14.2875L15.4724 13.8861C15.4724 13.8059 15.5521 13.7256 15.4724 13.6453C15.3926 13.5651 15.0736 13.4848 14.8344 13.4045C14.5951 13.4045 14.5951 13.3243 14.5951 13.3243L16.2699 13.5651C16.2699 13.5651 16.1902 13.244 16.0307 13.0835C15.8712 12.9229 15.5521 12.8427 15.5521 12.8427L15.3926 12.7624L15.3129 12.6821C15.3129 12.6821 16.0307 12.9229 16.5092 13.0032C16.9877 13.0835 17.4663 13.3243 17.4663 13.3243C17.4663 13.3243 17.3865 13.0032 17.227 12.7624C16.9877 12.5216 17.0675 12.5216 16.8282 12.4413C16.589 12.3611 16.1902 12.2005 16.1902 12.2005L15.8712 12.04L18.1043 12.6821C18.1043 12.6821 17.9448 12.1202 17.7055 11.9597C17.4663 11.7992 16.589 11.5584 16.589 11.5584C16.589 11.5584 18.1043 11.8794 18.2638 11.7992C18.4233 11.7189 18.7423 11.7189 18.7423 11.7189C18.7423 11.7189 18.3436 11.2373 18.184 11.157C18.1043 11.0768 17.7853 11.157 17.4663 11.157C17.227 11.157 16.589 10.9965 16.589 10.9965C16.589 10.9965 17.227 11.0768 17.7055 10.9965C18.1841 10.9162 18.5828 10.836 18.8221 10.4346C19.0614 10.1136 19.3006 9.79249 19.3006 9.79249C19.3006 9.79249 19.3804 9.63196 19.2209 9.63196C19.0614 9.63196 18.9816 9.63196 18.9816 9.63196C18.9816 9.63196 18.9018 9.63195 18.7423 9.79249C18.5828 9.95302 18.184 10.1938 17.7853 10.2741C17.4663 10.3544 17.3865 10.4346 17.3067 10.3544C17.227 10.3544 16.9877 10.3544 16.9877 10.3544C16.9877 10.3544 18.0245 10.1136 18.3436 9.87276C18.5828 9.63195 19.1411 9.23062 19.4601 8.66874C19.7791 8.0266 20.0184 7.545 20.0184 7.545C20.0184 7.545 19.6196 7.62527 19.3804 8.0266C19.1411 8.34767 18.5828 9.07008 18.2638 9.31088C17.9448 9.55169 17.865 9.63196 17.7055 9.71222C17.546 9.79249 17.4663 9.79249 17.4663 9.79249C17.4663 9.79249 18.2638 9.31088 18.4233 9.07008C18.5828 8.82928 19.0613 8.26741 19.3804 7.70553C19.6994 7.14366 20.4172 5.61858 20.4172 5.61858C20.4172 5.61858 19.8589 6.01992 19.6196 6.50152C19.3804 6.90286 18.2638 8.34767 18.2638 8.34767L17.7853 8.82928C17.7853 8.82928 18.9816 7.38446 19.1411 6.98313C19.3006 6.58179 20.1779 4.97644 20.1779 4.97644Z" fill="#0F5644"/>
<path d="M1.7546 5.13708L0.877301 3.612L0 2.08691L4.22699 8.10698L3.19018 5.69895L5.02454 8.66886C5.02454 8.66886 3.74847 6.42136 3.58896 5.93976C3.42945 5.53842 3.11043 4.65548 3.11043 4.65548C3.11043 4.65548 3.03068 4.17387 3.11043 4.0936C3.19018 3.93307 5.82209 9.311 5.82209 9.311C5.82209 9.311 5.02454 7.70564 5.02454 7.22404C5.02454 6.74243 5.18405 6.66217 5.18405 6.66217C5.18405 6.66217 5.50307 8.66885 6.46012 9.63206C7.41718 10.5953 7.09816 11.4782 7.17791 11.719C7.25767 11.9598 7.33742 12.5217 8.05522 12.7625C8.77301 13.0033 10.0491 13.6454 10.0491 13.6454C10.0491 13.6454 9.57055 13.806 9.41104 13.8862C9.33129 13.9665 9.17178 14.0468 9.09202 14.127C9.01227 14.2073 8.85276 14.4481 8.85276 14.5284C8.69325 14.8495 8.6135 15.01 8.6135 15.01L8.05522 14.9297C8.05522 14.9297 7.89571 14.6889 8.13497 14.4481C8.37423 14.2073 8.53374 14.127 8.53374 14.0468C8.53374 13.9665 8.6135 13.8862 8.6135 13.8862C8.6135 13.8862 8.37423 14.0468 7.97546 14.2073C7.57669 14.3679 7.01841 14.4481 7.01841 14.4481C7.01841 14.4481 7.09816 14.0468 7.01841 14.0468C7.01841 13.9665 6.93865 13.8862 7.01841 13.806C7.09816 13.7257 7.41718 13.6454 7.65644 13.5652C7.89571 13.4849 7.89571 13.4849 7.89571 13.4849L6.1411 13.6454C6.1411 13.6454 6.22086 13.3244 6.38037 13.1638C6.53988 13.0033 6.8589 12.8428 6.8589 12.8428L7.01841 12.7625L7.09816 12.6822C7.09816 12.6822 6.38037 13.0033 5.90184 13.0836C5.42331 13.1638 4.94479 13.4046 4.94479 13.4046C4.94479 13.4046 4.94479 13.0836 5.18405 12.8428C5.42331 12.602 5.34356 12.602 5.58282 12.5217C5.82209 12.4414 6.22086 12.2809 6.22086 12.2809L6.38037 12.1204L4.14724 12.8428C4.14724 12.8428 4.30675 12.2809 4.54601 12.1204C4.78528 11.8796 5.66258 11.719 5.66258 11.719C5.66258 11.719 4.14724 12.0401 3.98773 12.0401C3.82822 12.0401 3.5092 11.9598 3.5092 11.9598C3.5092 11.9598 3.90798 11.398 3.98773 11.3177C4.06748 11.2374 4.3865 11.3177 4.70552 11.2374C4.94479 11.2374 5.58282 11.1571 5.58282 11.1571C5.58282 11.1571 4.94479 11.2374 4.46626 11.1571C3.98773 11.1571 3.58896 10.9966 3.26994 10.6755C2.95092 10.3545 2.79141 10.0334 2.79141 10.0334C2.79141 10.0334 2.71166 9.87287 2.87117 9.87287C3.11043 9.87287 3.19018 9.7926 3.19018 9.7926C3.19018 9.7926 3.26994 9.7926 3.42945 9.95314C3.58896 10.1137 4.06748 10.3545 4.3865 10.4347C4.70552 10.515 4.78528 10.515 4.86503 10.515C4.94479 10.515 5.18405 10.515 5.18405 10.515C5.18405 10.515 4.06749 10.2742 3.82822 10.0334C3.5092 9.7926 3.03068 9.47153 2.71166 8.82939C2.39264 8.26752 2.07362 7.70564 2.07362 7.70564C2.07362 7.70564 2.47239 7.78591 2.71166 8.18725C2.95092 8.50832 3.58896 9.23073 3.90798 9.47153C4.22699 9.63207 4.30675 9.7926 4.54601 9.7926C4.70552 9.87287 4.78528 9.87287 4.78528 9.87287C4.78528 9.87287 3.98773 9.39126 3.74847 9.15046C3.58896 8.90966 3.03068 8.42805 2.71166 7.86618C2.39264 7.30431 1.59509 5.77922 1.59509 5.77922C1.59509 5.77922 2.23313 6.18056 2.47239 6.5819C2.71166 6.98324 3.90798 8.42805 3.90798 8.42805L4.3865 8.90966C4.3865 8.90966 3.11043 7.46484 2.95092 7.0635C2.79141 6.66217 1.7546 5.13708 1.7546 5.13708Z" fill="#0F5644"/>
</svg>
