<svg width="22" height="18" viewBox="0 0 22 18" fill="none" xmlns="http://www.w3.org/2000/svg">
<path d="M14.0029 3.69805H18.5844C18.6425 3.69805 18.6983 3.6745 18.7394 3.63258C18.7805 3.59066 18.8036 3.5338 18.8036 3.47452C18.8036 3.41523 18.7805 3.35837 18.7394 3.31645C18.6983 3.27453 18.6425 3.25098 18.5844 3.25098H14.0029C13.9447 3.25098 13.8889 3.27453 13.8478 3.31645C13.8067 3.35837 13.7836 3.41523 13.7836 3.47452C13.7836 3.5338 13.8067 3.59066 13.8478 3.63258C13.8889 3.6745 13.9447 3.69805 14.0029 3.69805Z" fill="white" stroke="white" stroke-width="0.3"/>
<path d="M18.5843 4.45996H16.0725C16.0144 4.45996 15.9586 4.48351 15.9175 4.52543C15.8764 4.56736 15.8533 4.62421 15.8533 4.6835C15.8533 4.74279 15.8764 4.79964 15.9175 4.84157C15.9586 4.88349 16.0144 4.90704 16.0725 4.90704H18.5843C18.6424 4.90704 18.6982 4.88349 18.7393 4.84157C18.7805 4.79964 18.8036 4.74279 18.8036 4.6835C18.8036 4.62421 18.7805 4.56736 18.7393 4.52543C18.6982 4.48351 18.6424 4.45996 18.5843 4.45996Z" fill="white" stroke="white" stroke-width="0.3"/>
<path d="M14.0028 4.90509H14.8068C14.8356 4.90509 14.8641 4.8993 14.8908 4.88807C14.9174 4.87684 14.9415 4.86037 14.9619 4.83961C14.9823 4.81885 14.9984 4.79421 15.0094 4.76709C15.0204 4.73997 15.0261 4.7109 15.0261 4.68155C15.0261 4.65219 15.0204 4.62312 15.0094 4.596C14.9984 4.56888 14.9823 4.54424 14.9619 4.52348C14.9415 4.50272 14.9174 4.48626 14.8908 4.47502C14.8641 4.46379 14.8356 4.45801 14.8068 4.45801H14.0028C13.9447 4.45801 13.8889 4.48156 13.8478 4.52348C13.8067 4.5654 13.7836 4.62226 13.7836 4.68155C13.7836 4.74083 13.8067 4.79769 13.8478 4.83961C13.8889 4.88153 13.9447 4.90509 14.0028 4.90509Z" fill="white" stroke="white" stroke-width="0.3"/>
<path d="M18.5844 5.66895H17.7202C17.6621 5.66895 17.6063 5.6925 17.5652 5.73442C17.5241 5.77634 17.501 5.8332 17.501 5.89248C17.501 5.95177 17.5241 6.00863 17.5652 6.05055C17.6063 6.09247 17.6621 6.11602 17.7202 6.11602H18.5844C18.6426 6.11602 18.6984 6.09247 18.7395 6.05055C18.7806 6.00863 18.8037 5.95177 18.8037 5.89248C18.8037 5.8332 18.7806 5.77634 18.7395 5.73442C18.6984 5.6925 18.6426 5.66895 18.5844 5.66895Z" fill="white" stroke="white" stroke-width="0.3"/>
<path d="M14.0028 6.11602H16.9166C16.9747 6.11602 17.0305 6.09247 17.0716 6.05055C17.1128 6.00863 17.1359 5.95177 17.1359 5.89248C17.1359 5.8332 17.1128 5.77634 17.0716 5.73442C17.0305 5.6925 16.9747 5.66895 16.9166 5.66895H14.0028C13.9447 5.66895 13.8889 5.6925 13.8478 5.73442C13.8067 5.77634 13.7836 5.8332 13.7836 5.89248C13.7836 5.95177 13.8067 6.00863 13.8478 6.05055C13.8889 6.09247 13.9447 6.11602 14.0028 6.11602Z" fill="white" stroke="white" stroke-width="0.3"/>
<path d="M20.9413 14.9311H20.259V6.13026C20.5293 5.66726 20.6731 5.13882 20.6752 4.59995C20.6752 2.61494 18.7099 1 16.294 1C15.2905 1 14.3649 1.27844 13.6254 1.74542C13.6156 1.74475 13.6059 1.74475 13.5961 1.74542H3.96061C3.52021 1.74589 3.09798 1.92448 2.78654 2.24203C2.47509 2.55958 2.29986 2.99015 2.2993 3.43928V14.9319H1.63589C1.46742 14.9321 1.30588 15.0003 1.18668 15.1217C1.06747 15.2431 1.00034 15.4078 1 15.5796V15.9896C1.00046 16.3417 1.13787 16.6794 1.38209 16.9284C1.62632 17.1774 1.95741 17.3174 2.30274 17.3177H20.2745C20.6198 17.3174 20.9509 17.1774 21.1951 16.9284C21.4393 16.6794 21.5767 16.3417 21.5772 15.9896V15.5796C21.5771 15.4076 21.5101 15.2427 21.3908 15.1211C21.2716 14.9995 21.1099 14.9312 20.9413 14.9311ZM11.4722 13.5647C11.5941 13.5643 11.7133 13.6008 11.8149 13.6695C11.9164 13.7383 11.9957 13.8362 12.0426 13.9509C12.0895 14.0657 12.102 14.192 12.0784 14.314C12.0549 14.4359 11.9964 14.548 11.9103 14.636C11.8242 14.724 11.7145 14.784 11.595 14.8084C11.4755 14.8327 11.3515 14.8204 11.2389 14.7729C11.1263 14.7253 11.0301 14.6448 10.9624 14.5414C10.8947 14.438 10.8586 14.3165 10.8587 14.1922C10.859 14.0262 10.9237 13.8671 11.0386 13.7495C11.1536 13.632 11.3094 13.5656 11.4722 13.5647ZM12.3273 13.5647H19.8204V14.9311H12.2371C12.406 14.7498 12.5075 14.514 12.524 14.2645C12.5405 14.015 12.4709 13.7675 12.3273 13.5647ZM20.2366 4.59864C20.2366 6.33678 18.4678 7.75133 16.294 7.75133C15.4234 7.75133 14.5979 7.52815 13.9065 7.10632C13.8725 7.08541 13.8336 7.07434 13.7939 7.07431C13.7852 7.07366 13.7764 7.07366 13.7677 7.07431L11.9189 7.30101L12.6885 6.11974C12.7111 6.08515 12.7238 6.04482 12.725 6.00328C12.7263 5.96175 12.7162 5.92068 12.6958 5.88471C12.4717 5.49391 12.3531 5.04959 12.3519 4.59688C12.3519 2.85829 14.1207 1.44418 16.2949 1.44418C18.4691 1.44418 20.2366 2.86136 20.2366 4.59864ZM3.96061 2.1918H13.0402C12.3394 2.82979 11.9125 3.67475 11.9125 4.59995C11.9127 5.08355 12.0282 5.55984 12.2491 5.98775L11.2886 7.45974C11.2655 7.49538 11.2528 7.53702 11.2521 7.57975C11.2514 7.62248 11.2628 7.66452 11.2847 7.70091C11.3063 7.73767 11.3379 7.76718 11.3758 7.78581C11.4136 7.80443 11.4559 7.81135 11.4976 7.8057L13.7457 7.53034C14.4917 7.96882 15.3705 8.1999 16.2932 8.1999C17.7378 8.1999 19.0212 7.62242 19.8187 6.73361V13.1175H7.95781V10.4603H10.9769C11.2022 10.4603 11.4183 10.369 11.5776 10.2065C11.737 10.044 11.8265 9.82364 11.8265 9.59384C11.8265 9.36405 11.737 9.14366 11.5776 8.98117C11.4183 8.81868 11.2022 8.7274 10.9769 8.7274H7.32751C7.58366 8.49191 7.76349 8.18251 7.8431 7.84031C7.92272 7.4981 7.89834 7.13929 7.77322 6.81155C7.64811 6.4838 7.42816 6.20265 7.14262 6.00543C6.85708 5.80822 6.51946 5.70429 6.17461 5.70744C5.82977 5.7106 5.49403 5.82069 5.212 6.0231C4.92997 6.2255 4.71501 6.51064 4.59568 6.84062C4.47635 7.1706 4.45829 7.5298 4.54391 7.87049C4.62953 8.21119 4.81477 8.51725 5.07503 8.74801C4.61965 8.81643 4.20353 9.04941 3.90247 9.4045C3.60141 9.75959 3.43543 10.2132 3.43478 10.6826V13.1175H2.73784V3.43841C2.7383 3.10785 2.86728 2.79098 3.09651 2.55728C3.32574 2.32358 3.63649 2.19215 3.96061 2.1918ZM4.71043 10.879C4.65228 10.879 4.5965 10.9026 4.55538 10.9445C4.51426 10.9865 4.49116 11.0434 4.49116 11.1027V13.1175H3.87333V10.6826C3.87378 10.2828 4.02971 9.89953 4.3069 9.61683C4.58409 9.33414 4.95991 9.17511 5.35191 9.17465H10.9769C11.0859 9.17465 11.1904 9.21882 11.2675 9.29743C11.3446 9.37604 11.3879 9.48267 11.3879 9.59384C11.3879 9.70502 11.3446 9.81164 11.2675 9.89025C11.1904 9.96887 11.0859 10.013 10.9769 10.013H7.73854C7.68038 10.013 7.62461 10.0366 7.58349 10.0785C7.54237 10.1205 7.51927 10.1773 7.51927 10.2367V13.1175H4.92927V11.1027C4.92927 11.0434 4.90623 10.9866 4.8652 10.9447C4.82417 10.9028 4.76851 10.8792 4.71043 10.879ZM6.18987 8.7274C5.94065 8.72731 5.69706 8.65186 5.48988 8.51059C5.2827 8.36932 5.12125 8.16857 5.02593 7.93372C4.93062 7.69887 4.90573 7.44048 4.9544 7.1912C5.00307 6.94193 5.12313 6.71297 5.29938 6.53328C5.47564 6.35358 5.70018 6.23122 5.94462 6.18167C6.18905 6.13211 6.44241 6.15759 6.67265 6.25488C6.90289 6.35216 7.09968 6.51689 7.23813 6.72823C7.37658 6.93957 7.45048 7.18803 7.45048 7.4422C7.45002 7.78307 7.31699 8.10982 7.08057 8.35077C6.84416 8.59171 6.52367 8.72717 6.18944 8.7274H6.18987ZM2.73784 13.5647H10.6175C10.4739 13.7675 10.4043 14.015 10.4207 14.2644C10.4372 14.5139 10.5385 14.7497 10.7073 14.9311H2.73784V13.5647ZM21.1395 15.9896C21.1392 16.2233 21.0479 16.4474 20.8857 16.6125C20.7235 16.7777 20.5037 16.8705 20.2745 16.8705H2.30274C2.07368 16.8702 1.85407 16.7774 1.69206 16.6122C1.53006 16.4471 1.43889 16.2232 1.43854 15.9896V15.5796C1.43866 15.5262 1.45949 15.4751 1.49647 15.4374C1.53346 15.3997 1.58359 15.3784 1.63589 15.3783H20.9405C20.9928 15.3784 21.0429 15.3997 21.0799 15.4374C21.1169 15.4751 21.1377 15.5262 21.1378 15.5796L21.1395 15.9896Z" fill="white" stroke="white" stroke-width="0.3"/>
</svg>
