<svg width="36" height="36" viewBox="0 0 36 36" fill="none" xmlns="http://www.w3.org/2000/svg">
<mask id="mask0_317_4136" style="mask-type:alpha" maskUnits="userSpaceOnUse" x="0" y="0" width="36" height="36">
<rect width="36" height="36" fill="url(#paint0_linear_317_4136)"/>
</mask>
<g mask="url(#mask0_317_4136)">
<path d="M34.3409 9.64004C34.3383 7.50375 32.8455 6.00571 30.7145 6.00396C22.3548 5.99868 13.9943 5.99868 5.63374 6.00396C3.50185 6.00484 2.00732 7.502 2.00468 9.63653C1.99765 15.1847 1.99765 20.732 2.01084 26.2802C2.01172 26.7013 2.07326 27.1409 2.20601 27.5392C2.70447 29.0284 4.00822 29.9005 5.68033 29.9023C9.83247 29.9049 13.9855 29.9031 18.1385 29.9031C22.3126 29.9031 26.4876 29.9058 30.6617 29.9014C32.8429 29.8996 34.3391 28.4192 34.3418 26.2504C34.347 20.7136 34.3479 15.1768 34.3409 9.64004ZM32.9396 26.209C32.9396 27.6332 32.0657 28.4992 30.631 28.4992C26.4674 28.5001 22.303 28.4992 18.1385 28.4992C14.0075 28.4992 9.87643 28.5001 5.74539 28.4992C4.27021 28.4992 3.40602 27.6411 3.40602 26.1747C3.40514 20.6925 3.40514 15.2093 3.40602 9.72708C3.40602 8.27124 4.26669 7.40529 5.71374 7.40529C14.0198 7.40441 22.3267 7.40441 30.6327 7.40529C32.0666 7.40529 32.9396 8.27036 32.9396 9.69543C32.9404 15.2006 32.9404 20.7048 32.9396 26.209Z" fill="url(#paint1_linear_317_4136)"/>
<path d="M16.9376 20.1752C16.4022 19.6891 15.8677 19.2012 15.3033 18.6869C15.3956 18.6508 15.4237 18.6341 15.4545 18.628C16.5947 18.3915 17.3455 17.4429 17.2374 16.3712C17.1213 15.2275 16.2413 14.4495 15.043 14.4389C14.3942 14.4328 13.7463 14.4363 13.0975 14.438C12.4215 14.4398 12.1876 14.6736 12.1867 15.3514C12.185 16.6816 12.1859 18.0108 12.1867 19.3401C12.1867 19.8016 12.1744 20.264 12.1911 20.7247C12.2087 21.2293 12.578 21.5344 13.0395 21.45C13.3832 21.3876 13.6021 21.0992 13.6083 20.6711C13.6162 20.1621 13.6101 19.6522 13.6101 19.0763C13.7516 19.1968 13.8342 19.2636 13.9134 19.3348C14.6131 19.9704 15.3077 20.6104 16.0127 21.2399C16.4716 21.6487 17.102 21.4693 17.2242 20.9023C17.2892 20.6007 17.1547 20.3713 16.9376 20.1752ZM13.6303 17.2266V15.8517C14.1674 15.8517 14.6914 15.8323 15.2118 15.8587C15.5617 15.8772 15.8044 16.1805 15.8114 16.5268C15.8193 16.8803 15.5881 17.2011 15.247 17.2196C14.716 17.2477 14.1824 17.2266 13.6303 17.2266Z" fill="url(#paint2_linear_317_4136)"/>
<path d="M22.3135 20.7557C22.3196 21.1724 21.9943 21.4625 21.4994 21.4652C20.6317 21.4696 19.764 21.4704 18.8963 21.4652C18.3389 21.4617 18.0875 21.2155 18.0857 20.6608C18.0813 18.8489 18.0813 17.0379 18.0866 15.226C18.0884 14.6932 18.3451 14.4427 18.8813 14.4392C19.7596 14.4339 20.6387 14.4339 21.517 14.44C21.9926 14.4427 22.3082 14.7258 22.3126 15.1328C22.3179 15.5521 21.9908 15.8414 21.4976 15.844C20.8409 15.8466 20.1851 15.8449 19.5108 15.8449V17.2401H20.7354C20.9543 17.2401 21.1741 17.2392 21.3939 17.2401C21.9706 17.2427 22.3108 17.5126 22.3038 17.961C22.2968 18.3988 21.9653 18.6616 21.4088 18.6643C20.8928 18.666 20.3767 18.6643 19.8607 18.6643H19.5143V20.0594C20.1886 20.0594 20.8356 20.0577 21.4827 20.0603C21.982 20.063 22.3073 20.3372 22.3135 20.7557Z" fill="url(#paint3_linear_317_4136)"/>
<path d="M28.8841 19.4614C29.1549 19.7515 29.1329 20.1849 28.8129 20.4891C28.1298 21.1388 27.314 21.464 26.3698 21.464C24.8137 21.4623 23.4414 20.4363 23.0027 18.9444C22.5605 17.4455 23.1733 15.8191 24.4946 14.9822C25.8054 14.1505 27.5329 14.2771 28.6854 15.3013C28.8349 15.4349 28.9746 15.6117 29.0423 15.7963C29.1487 16.0864 28.994 16.4064 28.7355 16.5629C28.4718 16.7229 28.165 16.664 27.8766 16.4758C27.5425 16.2587 27.197 16.0134 26.8217 15.9123C25.8731 15.6574 24.8964 16.1646 24.477 17.0561C24.0656 17.929 24.3047 18.9761 25.0555 19.588C25.8133 20.2051 26.9043 20.2148 27.677 19.6108C27.7456 19.5563 27.808 19.4939 27.8766 19.4385C28.2072 19.1686 28.6186 19.1783 28.8841 19.4614Z" fill="url(#paint4_linear_317_4136)"/>
<path d="M10.0804 17.9466C10.0857 19.1053 9.15641 20.053 8.00387 20.0636C6.83463 20.0741 5.87461 19.1396 5.85791 17.9739C5.84121 16.8169 6.80034 15.8437 7.95991 15.8402C9.13531 15.8367 10.0742 16.7703 10.0804 17.9466Z" fill="url(#paint5_linear_317_4136)"/>
<path d="M31.5391 12.9971C31.5321 13.4508 31.2288 13.7409 30.8209 13.7356C30.4182 13.7295 30.1308 13.4323 30.1237 12.9752C30.1132 12.2068 30.1202 11.4376 30.1202 10.6692V10.2244C29.242 10.2244 28.4103 10.2261 27.5778 10.2226C27.4248 10.2217 27.2674 10.2165 27.1215 10.1787C26.805 10.0978 26.6046 9.81469 26.6125 9.49556C26.6195 9.18787 26.8191 8.93116 27.1215 8.84149C27.1531 8.83182 27.1848 8.81688 27.2173 8.81775C28.2811 8.82391 29.3474 8.78699 30.4077 8.85644C31.0635 8.89951 31.5198 9.4982 31.5365 10.1971C31.5585 11.1299 31.5523 12.0653 31.5391 12.9971Z" fill="url(#paint6_linear_317_4136)"/>
<path d="M9.72963 26.389C9.73139 26.7055 9.56963 26.9349 9.27248 27.0448C9.15292 27.0896 9.01489 27.1002 8.88478 27.1011C8.02851 27.1063 7.17136 27.1099 6.31508 27.1019C5.39815 27.094 4.81089 26.5077 4.80298 25.5942C4.79594 24.7371 4.79858 23.8808 4.8021 23.0237C4.80386 22.49 5.06935 22.1727 5.50452 22.1683C5.95552 22.1639 6.22189 22.4839 6.22453 23.0404C6.22717 23.7876 6.22541 24.534 6.22541 25.2813V25.6795C7.12476 25.6795 7.96961 25.6769 8.81445 25.6821C8.96654 25.683 9.12654 25.6892 9.26808 25.7375C9.56787 25.8404 9.72875 26.0725 9.72963 26.389Z" fill="url(#paint7_linear_317_4136)"/>
<path d="M9.73313 9.5137C9.73225 9.91459 9.43335 10.2126 8.9806 10.2205C8.21312 10.2337 7.44388 10.2249 6.67639 10.2249H6.2254V11.7388C6.2254 12.101 6.22628 12.4632 6.22452 12.8254C6.22276 13.4039 5.95638 13.7379 5.50451 13.7327C5.06319 13.7274 4.80296 13.4012 4.80209 12.8412C4.79945 12.0078 4.79769 11.1735 4.80209 10.3392C4.80736 9.39942 5.38671 8.80952 6.31683 8.80249C7.17222 8.79545 8.0285 8.80073 8.88477 8.80073C8.9173 8.80073 8.95071 8.79985 8.98323 8.80161C9.43423 8.82798 9.73401 9.11194 9.73313 9.5137Z" fill="url(#paint8_linear_317_4136)"/>
<path d="M31.5435 25.5558C31.5373 26.5123 30.9562 27.0969 30.0041 27.1031C29.1373 27.1084 28.2696 27.1057 27.4028 27.1031C27.0696 27.1013 26.8023 26.9809 26.667 26.6539C26.5492 26.3681 26.5931 26.0842 26.827 25.9057C26.9958 25.7765 27.241 25.6965 27.4547 25.6895C28.2116 25.664 28.9694 25.6798 29.7263 25.6798H30.1202C30.1202 24.7769 30.1176 23.9329 30.1228 23.0881C30.1237 22.936 30.1299 22.776 30.1782 22.6345C30.2828 22.3356 30.5149 22.1756 30.8314 22.1747C31.1479 22.1747 31.3782 22.3347 31.4855 22.6327C31.5321 22.7637 31.5409 22.9123 31.5417 23.0538C31.547 23.8872 31.5479 24.7215 31.5435 25.5558Z" fill="url(#paint9_linear_317_4136)"/>
</g>
<defs>
<linearGradient id="paint0_linear_317_4136" x1="18" y1="0" x2="18" y2="36" gradientUnits="userSpaceOnUse">
<stop stop-color="#3E3B68"/>
<stop offset="1" stop-color="#6C3A71"/>
</linearGradient>
<linearGradient id="paint1_linear_317_4136" x1="18.173" y1="-9.8433" x2="45.1088" y2="29.5346" gradientUnits="userSpaceOnUse">
<stop offset="0.473415" stop-color="#585C8B"/>
<stop offset="1" stop-color="#005F95"/>
</linearGradient>
<linearGradient id="paint2_linear_317_4136" x1="14.715" y1="9.77698" x2="22.9536" y2="16.1916" gradientUnits="userSpaceOnUse">
<stop offset="0.473415" stop-color="#585C8B"/>
<stop offset="1" stop-color="#005F95"/>
</linearGradient>
<linearGradient id="paint3_linear_317_4136" x1="20.198" y1="9.77356" x2="27.9692" y2="14.824" gradientUnits="userSpaceOnUse">
<stop offset="0.473415" stop-color="#585C8B"/>
<stop offset="1" stop-color="#005F95"/>
</linearGradient>
<linearGradient id="paint4_linear_317_4136" x1="25.9683" y1="9.77754" x2="34.4571" y2="17.8887" gradientUnits="userSpaceOnUse">
<stop offset="0.473415" stop-color="#585C8B"/>
<stop offset="1" stop-color="#005F95"/>
</linearGradient>
<linearGradient id="paint5_linear_317_4136" x1="7.96905" y1="13.0409" x2="13.0603" y2="18.5404" gradientUnits="userSpaceOnUse">
<stop offset="0.473415" stop-color="#585C8B"/>
<stop offset="1" stop-color="#005F95"/>
</linearGradient>
<linearGradient id="paint6_linear_317_4136" x1="29.0816" y1="5.55088" x2="35.0138" y2="11.9812" gradientUnits="userSpaceOnUse">
<stop offset="0.473415" stop-color="#585C8B"/>
<stop offset="1" stop-color="#005F95"/>
</linearGradient>
<linearGradient id="paint7_linear_317_4136" x1="7.2641" y1="18.8951" x2="13.2178" y2="25.3178" gradientUnits="userSpaceOnUse">
<stop offset="0.473415" stop-color="#585C8B"/>
<stop offset="1" stop-color="#005F95"/>
</linearGradient>
<linearGradient id="paint8_linear_317_4136" x1="7.26627" y1="5.52869" x2="13.2139" y2="11.9541" gradientUnits="userSpaceOnUse">
<stop offset="0.473415" stop-color="#585C8B"/>
<stop offset="1" stop-color="#005F95"/>
</linearGradient>
<linearGradient id="paint9_linear_317_4136" x1="29.0751" y1="18.9062" x2="35.0188" y2="25.3418" gradientUnits="userSpaceOnUse">
<stop offset="0.473415" stop-color="#585C8B"/>
<stop offset="1" stop-color="#005F95"/>
</linearGradient>
</defs>
</svg>
