<svg width="36" height="36" viewBox="0 0 36 36" fill="none" xmlns="http://www.w3.org/2000/svg">
<mask id="mask0_317_4179" style="mask-type:alpha" maskUnits="userSpaceOnUse" x="0" y="0" width="36" height="36">
<rect width="36" height="36" fill="url(#paint0_linear_317_4179)"/>
</mask>
<g mask="url(#mask0_317_4179)">
<path d="M33.693 6.76609C33.3478 5.37019 32.2719 4.50563 30.8316 4.50323C26.3893 4.49663 21.947 4.49303 17.5048 4.51344C17.0689 4.51524 16.5988 4.61731 16.2061 4.80282C15.093 5.32996 14.5911 6.26777 14.5917 7.48836C14.5929 10.1997 14.5917 12.9111 14.5917 15.6224V15.9946C13.6491 15.5263 12.7497 15.0803 11.8467 14.6324C13.6761 12.6001 13.1754 9.81366 11.4901 8.40215C9.80599 6.99124 7.35762 7.0825 5.74978 8.61348C4.29504 9.99798 3.74268 12.8384 5.89747 14.9001C5.74498 15.0004 5.59248 15.0923 5.44898 15.1961C4.10052 16.1718 3.24196 17.4746 3.08646 19.1335C2.97119 20.3637 2.9934 21.6125 3.02702 22.8505C3.05824 24.0074 3.64422 24.8552 4.70811 25.3391C4.89783 25.4255 4.94166 25.5324 4.94106 25.7245C4.93325 27.2351 4.93625 28.7463 4.93685 30.2568C4.93745 31.0566 5.26707 31.388 6.06678 31.388C7.81751 31.3886 9.56824 31.3886 11.3196 31.3886C12.2304 31.388 12.5312 31.0908 12.5312 30.1896C12.5318 27.058 12.5312 23.9264 12.5312 20.7947V20.3793C12.6861 20.4489 12.7851 20.4897 12.8812 20.5378C13.6947 20.9436 14.5046 21.3567 15.3212 21.756C16.3838 22.2753 17.5438 22.1576 18.2558 21.2979C18.6593 20.8104 19.0688 20.7341 19.6079 20.7671C19.9766 20.7893 20.3476 20.7713 20.718 20.7713H21.9044C21.8636 20.8998 21.8366 20.9947 21.8029 21.0871C21.0939 23.0396 20.3824 24.9908 19.674 26.9439C19.2759 28.042 18.8712 29.1383 18.4906 30.243C18.3411 30.6777 18.5783 31.1268 18.9925 31.3039C19.4206 31.4864 19.8643 31.3435 20.1044 30.9347C20.1795 30.8062 20.2377 30.6663 20.2888 30.5264C21.4361 27.3732 22.5834 24.2199 23.7242 21.0637C23.7962 20.8638 23.8713 20.7485 24.1156 20.7629C24.3402 20.7761 24.4819 20.7863 24.5779 21.0511C25.7042 24.1593 26.8486 27.2603 27.9905 30.3625C28.0662 30.5678 28.1448 30.7762 28.2553 30.9635C28.439 31.2763 28.735 31.4126 29.0928 31.3736C29.4753 31.3315 29.7989 31.071 29.8457 30.7053C29.8763 30.4616 29.8343 30.1866 29.7497 29.953C28.675 26.9967 27.5859 24.0452 26.5022 21.0919C26.4667 20.9959 26.4415 20.8956 26.4037 20.7713H26.7789C28.1202 20.7713 29.4609 20.7737 30.8015 20.7707C31.7808 20.7677 32.6189 20.4243 33.1797 19.609C33.4432 19.2265 33.5651 18.7462 33.7512 18.3097V6.96242C33.732 6.89698 33.7098 6.83213 33.693 6.76609ZM6.27091 11.5668C6.35257 10.0718 7.56715 9.15023 8.82436 9.20606C10.3584 9.27391 11.2805 10.5749 11.1923 11.8051C11.1316 13.1806 9.94408 14.1959 8.64485 14.1352C7.13968 14.0644 6.20187 12.8186 6.27091 11.5668ZM17.1721 19.6558C17.1577 19.9188 17.0058 20.1403 16.7645 20.1956C16.5604 20.2424 16.2992 20.2184 16.1101 20.1271C14.9753 19.5826 13.8544 19.0098 12.7287 18.4472C12.4963 18.3307 12.2682 18.2059 12.0292 18.1044C11.3916 17.8324 10.7954 18.1951 10.7378 18.8843C10.7282 19.0038 10.73 19.1245 10.73 19.2439V29.5706H6.73802V29.2338C6.73802 27.773 6.73922 26.3129 6.73742 24.8522C6.73682 24.1749 6.45643 23.8615 5.7894 23.7835C5.17761 23.7126 4.81798 23.3212 4.81438 22.7028C4.80837 21.7524 4.80237 20.8013 4.81558 19.8515C4.845 17.7093 6.48465 16.0541 8.62323 15.9526C9.77898 15.8974 10.8483 16.0943 11.8851 16.6467C13.4888 17.5016 15.1338 18.2791 16.7627 19.0866C17.0028 19.2061 17.1878 19.3664 17.1721 19.6558ZM31.9501 17.7436C31.9495 18.5853 31.564 18.9702 30.7199 18.9702H18.8863C18.9415 18.8507 18.9793 18.7618 19.0225 18.6754C19.6962 17.3257 20.38 15.9808 21.0356 14.6222C21.1455 14.3946 21.1983 14.0986 21.1617 13.8519C21.1083 13.4892 20.8333 13.2629 20.4617 13.2052C20.0684 13.1434 19.7418 13.2773 19.5431 13.6273C19.3407 13.9827 19.1678 14.355 18.9841 14.7212C18.5278 15.632 18.0727 16.5428 17.599 17.4902C17.222 17.3029 16.8684 17.1408 16.5315 16.9499C16.4559 16.9066 16.4 16.7619 16.3988 16.6629C16.3892 15.6728 16.3934 14.6822 16.3934 13.6916C16.3934 11.6298 16.3928 9.5687 16.3934 7.50757C16.394 6.68324 16.7789 6.30259 17.6104 6.30199H30.7283C31.5676 6.30259 31.9501 6.68864 31.9501 7.53699V17.7436Z" fill="url(#paint1_linear_317_4179)"/>
<path d="M29.8945 9.27643C29.8825 9.76995 29.4995 10.1482 28.9753 10.1512C27.6052 10.1584 26.2351 10.1542 24.8651 10.1548H24.1446C24.1446 10.1542 24.1446 10.1542 24.1446 10.1536C22.5542 10.1536 20.9644 10.1596 19.3739 10.1506C18.7021 10.147 18.274 9.534 18.5106 8.93602C18.6198 8.66104 18.8186 8.46711 19.1128 8.39987C19.2568 8.36685 19.4093 8.35544 19.5576 8.35544C22.6286 8.35244 25.699 8.35304 28.7694 8.35364C28.8594 8.35364 28.9501 8.35124 29.039 8.36084C29.5427 8.41488 29.9059 8.80573 29.8945 9.27643Z" fill="url(#paint2_linear_317_4179)"/>
<path d="M29.8444 12.9101C29.7363 13.2391 29.5052 13.4438 29.1617 13.5128C29.1419 13.5164 29.1221 13.5201 29.1023 13.5201C27.4248 13.5207 25.7473 13.5315 24.0699 13.5146C23.6592 13.5104 23.3626 13.1958 23.293 12.8044C23.1867 12.2148 23.5872 11.7507 24.2386 11.7393C25.0179 11.7261 25.7972 11.7363 26.5759 11.7363C27.3648 11.7369 28.1543 11.7237 28.9432 11.7405C29.6222 11.7555 30.0407 12.3103 29.8444 12.9101Z" fill="url(#paint3_linear_317_4179)"/>
<path d="M29.8947 16.0005C29.9037 16.5145 29.4918 16.9137 28.9155 16.9161C27.3569 16.9233 25.7983 16.9227 24.2397 16.9161C23.7131 16.9137 23.3547 16.6099 23.2868 16.1434C23.2226 15.7027 23.4694 15.2927 23.8926 15.1648C24.0235 15.1252 24.1682 15.1204 24.3063 15.1198C25.0652 15.1156 25.8247 15.1174 26.5842 15.1174C27.3533 15.1174 28.1224 15.115 28.8921 15.1186C29.4852 15.1216 29.8857 15.477 29.8947 16.0005Z" fill="url(#paint4_linear_317_4179)"/>
</g>
<defs>
<linearGradient id="paint0_linear_317_4179" x1="18" y1="0" x2="18" y2="36" gradientUnits="userSpaceOnUse">
<stop stop-color="#3E3B68"/>
<stop offset="1" stop-color="#6C3A71"/>
</linearGradient>
<linearGradient id="paint1_linear_317_4179" x1="18.3756" y1="-13.3247" x2="50.1745" y2="25.9621" gradientUnits="userSpaceOnUse">
<stop offset="0.473415" stop-color="#585C8B"/>
<stop offset="1" stop-color="#005F95"/>
</linearGradient>
<linearGradient id="paint2_linear_317_4179" x1="24.1698" y1="7.15853" x2="24.7917" y2="11.4264" gradientUnits="userSpaceOnUse">
<stop offset="0.473415" stop-color="#585C8B"/>
<stop offset="1" stop-color="#005F95"/>
</linearGradient>
<linearGradient id="paint3_linear_317_4179" x1="26.5844" y1="10.5442" x2="27.6066" y2="14.6214" gradientUnits="userSpaceOnUse">
<stop offset="0.473415" stop-color="#585C8B"/>
<stop offset="1" stop-color="#005F95"/>
</linearGradient>
<linearGradient id="paint4_linear_317_4179" x1="26.5858" y1="13.9204" x2="27.6213" y2="18.0231" gradientUnits="userSpaceOnUse">
<stop offset="0.473415" stop-color="#585C8B"/>
<stop offset="1" stop-color="#005F95"/>
</linearGradient>
</defs>
</svg>
