<svg width="29" height="32" viewBox="0 0 29 32" fill="none" xmlns="http://www.w3.org/2000/svg">
<g clip-path="url(#clip0_317_4154)">
<path d="M29 7.6898C29.0043 6.90732 28.7681 6.374 28.1853 5.85151C26.147 4.02573 24.1541 2.15078 22.1415 0.297492C22.0208 0.185828 21.877 0.0983308 21.7436 0H4.2229C3.99614 0.0516653 3.76766 0.0974975 3.54261 0.156663C1.42473 0.713315 0.00853052 2.52743 0.00425197 4.71071C-0.00259371 8.13812 0.00168484 11.5647 0.00168484 14.9913C0.00168484 19.0853 -0.001738 23.1786 0.00339626 27.2726C0.0068191 29.5701 1.53255 31.425 3.80959 31.8975C4.16129 31.9708 4.5301 31.995 4.89121 31.995C11.2876 32.0008 17.6841 32 24.0805 31.9992C26.9026 31.9983 28.9786 29.9776 28.9794 27.2201C28.9829 20.7095 28.9666 14.1996 29 7.6898ZM22.3254 2.81409C23.5337 3.9299 24.6923 4.99987 25.922 6.13651H24.7531C24.2628 6.13567 23.7716 6.14317 23.2804 6.13151C22.7379 6.11901 22.34 5.75235 22.3297 5.2332C22.3143 4.45488 22.3254 3.67574 22.3254 2.81409ZM27.25 27.2176C27.2492 29.0584 25.9528 30.3125 24.0591 30.3134C17.6755 30.315 11.2919 30.315 4.90747 30.3134C3.03774 30.3125 1.73364 29.0517 1.73279 27.2335C1.72936 19.7462 1.72936 12.2588 1.73279 4.77154C1.73364 2.95076 3.03518 1.68746 4.90233 1.68579C10.0238 1.68329 15.146 1.68496 20.2683 1.68496H20.5943C20.5943 2.88409 20.5858 4.03823 20.5961 5.1932C20.6089 6.50733 21.5151 7.5523 22.8337 7.7823C23.0528 7.82063 23.2804 7.81813 23.5046 7.81896C24.7343 7.82146 25.9631 7.8198 27.2338 7.8198C27.2398 7.94313 27.2509 8.05146 27.2509 8.16062C27.2509 14.513 27.2535 20.8653 27.25 27.2176Z" fill="url(#paint0_linear_317_4154)"/>
<path d="M24.8507 26.6335C24.766 26.5402 24.6718 26.4552 24.5811 26.3668C23.6125 25.426 22.6446 24.4844 21.6803 23.5469C23.2822 21.1053 22.3871 18.3829 20.5148 17.0796C18.5834 15.7346 15.9359 15.9613 14.2767 17.6246C12.6346 19.2703 12.4728 21.8661 13.8873 23.6911C15.2924 25.5035 18.0469 26.2443 20.4566 24.7327C21.2336 25.4893 21.9969 26.2327 22.7593 26.976C23.0468 27.256 23.3284 27.541 23.6244 27.8126C23.9915 28.1501 24.499 28.1551 24.8361 27.8401C25.1835 27.516 25.1904 27.0093 24.8507 26.6335ZM17.667 23.8661C15.9778 23.8352 14.6224 22.4703 14.6557 20.8353C14.69 19.1795 16.0737 17.862 17.7526 17.887C19.4691 17.9129 20.8151 19.2812 20.7809 20.9653C20.7475 22.5778 19.3313 23.8969 17.667 23.8661Z" fill="url(#paint1_linear_317_4154)"/>
<path d="M23.1384 10.0923C23.1247 10.4706 22.856 10.7989 22.4778 10.8781C22.3332 10.9081 22.1808 10.9148 22.032 10.9148C17.0055 10.9164 11.9799 10.9164 6.9535 10.9164C6.91071 10.9164 6.86793 10.9173 6.82514 10.9164C6.23213 10.9014 5.83936 10.5606 5.84364 10.064C5.84792 9.56563 6.23812 9.23564 6.83883 9.23481C9.39398 9.23314 11.95 9.23397 14.506 9.23397C17.0192 9.23397 19.5324 9.23397 22.0456 9.23564C22.2048 9.23564 22.37 9.23397 22.5223 9.27147C22.8877 9.36147 23.1521 9.72896 23.1384 10.0923Z" fill="url(#paint2_linear_317_4154)"/>
<path d="M22.4444 14.6921C22.3092 14.7163 22.168 14.7213 22.0294 14.7213C17.0038 14.7229 11.9774 14.7229 6.95093 14.7221C6.33824 14.7221 6.01393 14.5338 5.88643 14.1129C5.73668 13.6188 6.06099 13.1221 6.58554 13.0538C6.73272 13.0346 6.88418 13.0355 7.03308 13.0355C9.5249 13.0346 12.0167 13.0346 14.5086 13.0346C17.032 13.0346 19.5564 13.0338 22.0799 13.0355C22.6772 13.0363 22.9972 13.2421 23.1076 13.6854C23.2231 14.1471 22.9245 14.6063 22.4444 14.6921Z" fill="url(#paint3_linear_317_4154)"/>
<path d="M10.4662 17.6804C10.467 18.1812 10.1017 18.5053 9.52148 18.5195C9.50009 18.5203 9.4787 18.5203 9.4573 18.5203C9.02004 18.5203 8.58191 18.5203 8.14465 18.5195C8.01543 18.5195 7.88537 18.5203 7.75615 18.5212C7.50971 18.522 7.26327 18.5237 7.01682 18.5212C6.93382 18.5203 6.84996 18.5195 6.76695 18.5178C6.22016 18.507 5.8445 18.1603 5.84364 17.6829C5.84279 17.207 6.21588 16.8512 6.76439 16.8437C7.69369 16.832 8.62213 16.832 9.55143 16.8437C10.1085 16.8504 10.4645 17.1929 10.4662 17.6804Z" fill="url(#paint4_linear_317_4154)"/>
</g>
<defs>
<linearGradient id="paint0_linear_317_4154" x1="14.5002" y1="-21.2091" x2="53.1814" y2="16.6629" gradientUnits="userSpaceOnUse">
<stop offset="0.473415" stop-color="#585C8B"/>
<stop offset="1" stop-color="#005F95"/>
</linearGradient>
<linearGradient id="paint1_linear_317_4154" x1="19.0138" y1="8.34093" x2="33.2845" y2="24.16" gradientUnits="userSpaceOnUse">
<stop offset="0.473415" stop-color="#585C8B"/>
<stop offset="1" stop-color="#005F95"/>
</linearGradient>
<linearGradient id="paint2_linear_317_4154" x1="14.4913" y1="8.11826" x2="14.8549" y2="12.1553" gradientUnits="userSpaceOnUse">
<stop offset="0.473415" stop-color="#585C8B"/>
<stop offset="1" stop-color="#005F95"/>
</linearGradient>
<linearGradient id="paint3_linear_317_4154" x1="14.4911" y1="11.9155" x2="14.8572" y2="15.9647" gradientUnits="userSpaceOnUse">
<stop offset="0.473415" stop-color="#585C8B"/>
<stop offset="1" stop-color="#005F95"/>
</linearGradient>
<linearGradient id="paint4_linear_317_4154" x1="8.15491" y1="15.7165" x2="9.39249" y2="19.379" gradientUnits="userSpaceOnUse">
<stop offset="0.473415" stop-color="#585C8B"/>
<stop offset="1" stop-color="#005F95"/>
</linearGradient>
<clipPath id="clip0_317_4154">
<rect width="29" height="32" fill="white"/>
</clipPath>
</defs>
</svg>
