<svg width="36" height="36" viewBox="0 0 36 36" fill="none" xmlns="http://www.w3.org/2000/svg">
<mask id="mask0_317_4190" style="mask-type:alpha" maskUnits="userSpaceOnUse" x="0" y="0" width="36" height="36">
<rect width="36" height="36" fill="url(#paint0_linear_317_4190)"/>
</mask>
<g mask="url(#mask0_317_4190)">
<path d="M32.7178 20.8117C32.2817 20.3115 31.8456 19.8098 31.4103 19.3088C31.2329 19.1033 31.057 18.8961 30.8835 18.6945C33.6299 15.1815 33.572 10.586 31.3415 7.26764C29.1579 4.018 25.1189 2.36348 21.3488 3.18879C19.3449 3.62723 17.6247 4.57445 16.2359 6.08517C14.2602 8.23674 13.4466 10.7939 13.6866 13.7036C13.0293 13.7036 12.3939 13.6591 11.7655 13.7106C7.69373 14.0459 4.20495 17.0502 3.26319 21.0188C3.13815 21.5471 3.07015 22.0895 2.97559 22.6249V24.0903C3.08266 24.6631 3.16003 25.2438 3.30383 25.8081C3.62895 27.0828 4.01972 27.8362 5.07871 29.3656C4.75906 29.7345 4.42925 30.105 4.11194 30.4856C3.72743 30.9475 3.35385 31.4187 2.97559 31.8861V32.355C3.1147 32.6458 3.32962 32.8607 3.62036 32.9998H13.3505C13.7061 32.9435 14.0617 32.8919 14.4165 32.831C19.1206 32.0143 22.6078 27.5806 22.3069 22.8023C22.296 22.6319 22.2812 22.4615 22.2679 22.2849C22.6063 22.3013 22.9079 22.3279 23.2088 22.3279C26.149 22.3318 29.0891 22.3302 32.0285 22.3326C32.4279 22.3334 32.7342 22.1786 32.9038 21.8128C33.075 21.4424 32.9773 21.1095 32.7178 20.8117ZM17.2293 29.7642C15.9022 30.7591 14.3712 31.228 12.7128 31.2374C10.476 31.2499 8.23925 31.2413 6.00248 31.2413C5.95403 31.2413 5.90557 31.2374 5.79147 31.232C6.1541 30.813 6.48 30.4403 6.80278 30.0643C7.24513 29.5516 7.23966 29.1484 6.78949 28.6435C2.82553 24.2067 4.86691 17.2643 10.6018 15.6879C11.6702 15.3941 12.755 15.3378 13.8523 15.5074C14.0164 15.5324 14.1008 15.5902 14.1594 15.7544C15.2231 18.7219 17.2426 20.7421 20.2077 21.8113C20.3804 21.8738 20.4492 21.9629 20.4703 22.138C20.8533 25.3032 19.774 27.8573 17.2293 29.7642ZM29.8347 20.5733C27.7066 20.5733 25.5777 20.5749 23.4488 20.5733C19.3879 20.5694 16.139 17.8082 15.4833 13.8036C14.8089 9.68493 17.7779 5.56466 21.9224 4.86988C26.2256 4.14773 30.2208 6.86045 31.0688 11.137C31.5705 13.6684 30.9234 15.9333 29.2431 17.8942C28.7038 18.5234 28.6913 18.8625 29.2415 19.4917C29.5409 19.834 29.8378 20.1779 30.1802 20.5733H29.8347Z" fill="url(#paint1_linear_317_4190)"/>
<path d="M2.97557 32.3551C3.11468 32.6458 3.32961 32.8608 3.62034 32.9999L2.97557 32.3551Z" fill="white"/>
<path d="M24.5085 13.1452C24.4085 13.1835 24.3085 13.2218 24.1944 13.2656C24.1944 13.8416 24.1959 14.4176 24.1936 14.9928C24.192 15.5774 23.82 15.9845 23.3026 15.9759C22.7938 15.9673 22.4382 15.5672 22.4367 14.9967C22.4343 14.1956 22.4343 13.3945 22.4367 12.5934C22.4382 11.9799 22.7681 11.6384 23.3855 11.6056C24.2366 11.5595 24.8837 10.9092 24.9251 10.0581C24.965 9.25237 24.3858 8.54508 23.5676 8.39971C22.7837 8.2606 21.9842 8.76938 21.7661 9.55561C21.7216 9.71426 21.7145 9.88229 21.6942 10.0472C21.6301 10.5583 21.2433 10.903 20.7681 10.8694C20.271 10.835 19.9303 10.4387 19.9451 9.91121C19.9873 8.41221 21.008 7.11721 22.4461 6.73816C24.1811 6.28096 25.9849 7.2657 26.5257 8.96398C27.0728 10.6802 26.1943 12.5004 24.5085 13.1452Z" fill="url(#paint2_linear_317_4190)"/>
<path d="M24.1931 17.7598C24.1931 18.2467 23.7789 18.6508 23.2928 18.6383C22.8184 18.6258 22.4292 18.2186 22.437 17.7442C22.4456 17.2706 22.8489 16.8767 23.3232 16.8814C23.7984 16.8861 24.1939 17.2847 24.1931 17.7598Z" fill="url(#paint3_linear_317_4190)"/>
<path d="M16.4554 21.5624C16.4601 22.0853 16.0592 22.4471 15.4699 22.4479C14.5242 22.4502 13.5778 22.4487 12.6321 22.4487C11.695 22.4487 10.7588 22.4502 9.82248 22.4479C9.23398 22.4471 8.83383 22.0837 8.83774 21.5616C8.84243 21.0513 9.23945 20.691 9.80841 20.691C11.7013 20.6894 13.5934 20.6894 15.4855 20.691C16.056 20.691 16.4515 21.0505 16.4554 21.5624Z" fill="url(#paint4_linear_317_4190)"/>
<path d="M16.3804 25.4331C16.2162 25.7988 15.9154 25.9669 15.5152 25.9661C14.5594 25.9653 13.6028 25.9661 12.647 25.9661C11.7107 25.9661 10.7744 25.9669 9.83811 25.9661C9.24258 25.9645 8.84322 25.6152 8.83774 25.0947C8.83306 24.5726 9.23477 24.2084 9.82248 24.2084C11.7247 24.2068 13.627 24.2045 15.5285 24.2092C16.2077 24.2108 16.6461 24.843 16.3804 25.4331Z" fill="url(#paint5_linear_317_4190)"/>
</g>
<defs>
<linearGradient id="paint0_linear_317_4190" x1="18" y1="0" x2="18" y2="36" gradientUnits="userSpaceOnUse">
<stop stop-color="#3E3B68"/>
<stop offset="1" stop-color="#6C3A71"/>
</linearGradient>
<linearGradient id="paint1_linear_317_4190" x1="17.9825" y1="-16.9193" x2="54.1727" y2="22.1698" gradientUnits="userSpaceOnUse">
<stop offset="0.473415" stop-color="#585C8B"/>
<stop offset="1" stop-color="#005F95"/>
</linearGradient>
<linearGradient id="paint2_linear_317_4190" x1="23.3162" y1="0.429426" x2="34.2777" y2="8.97033" gradientUnits="userSpaceOnUse">
<stop offset="0.473415" stop-color="#585C8B"/>
<stop offset="1" stop-color="#005F95"/>
</linearGradient>
<linearGradient id="paint3_linear_317_4190" x1="23.315" y1="15.7167" x2="25.4333" y2="18.004" gradientUnits="userSpaceOnUse">
<stop offset="0.473415" stop-color="#585C8B"/>
<stop offset="1" stop-color="#005F95"/>
</linearGradient>
<linearGradient id="paint4_linear_317_4190" x1="12.6466" y1="19.5237" x2="13.5163" y2="23.5922" gradientUnits="userSpaceOnUse">
<stop offset="0.473415" stop-color="#585C8B"/>
<stop offset="1" stop-color="#005F95"/>
</linearGradient>
<linearGradient id="paint5_linear_317_4190" x1="12.6484" y1="23.0399" x2="13.5183" y2="27.1099" gradientUnits="userSpaceOnUse">
<stop offset="0.473415" stop-color="#585C8B"/>
<stop offset="1" stop-color="#005F95"/>
</linearGradient>
</defs>
</svg>
