<svg width="70" height="70" viewBox="0 0 70 70" fill="none" xmlns="http://www.w3.org/2000/svg">
<g clip-path="url(#clip0_0_275)">
<path d="M40.3229 -5.23764e-06C40.9986 0.255609 41.6998 0.458275 42.3407 0.779619C43.3852 1.30363 44.1558 2.13985 44.7183 3.16048C49.6961 12.18 54.6977 21.1849 59.639 30.2246C61.9416 34.4367 58.9542 39.35 54.1553 39.3518C44.2691 39.3573 34.3828 39.3573 24.4965 39.3518C19.705 39.3482 16.7267 34.4203 19.0293 30.2118C23.9633 21.1959 28.9466 12.2092 33.919 3.21343C34.8265 1.57202 36.1979 0.527656 38.0459 0.125976C38.1262 0.107718 38.1974 0.0419886 38.2723 -0.00183105C38.9552 -0.00183105 39.64 -0.00183105 40.3229 -0.00183105V-5.23764e-06ZM37.3045 17.8382C37.3045 19.2697 37.299 20.7029 37.3045 22.1344C37.31 23.3632 38.1408 24.2688 39.2821 24.3089C40.3905 24.3491 41.3528 23.4563 41.3675 22.2348C41.404 19.3025 41.4021 16.3703 41.3711 13.438C41.3583 12.2074 40.4416 11.3292 39.315 11.3401C38.1426 11.3511 37.31 12.2585 37.3045 13.5421C37.299 14.9735 37.3045 16.4068 37.3045 17.8382ZM37.3045 29.0871C37.3008 30.1972 38.223 31.1357 39.3241 31.143C40.4124 31.1503 41.3693 30.199 41.3729 29.1035C41.3784 28.0025 40.4416 27.0604 39.3405 27.0568C38.2285 27.0531 37.3081 27.9715 37.3045 29.0871Z" fill="#165D93"/>
<path d="M0 44.6905C0.312255 44.2268 0.533208 43.637 0.960505 43.334C1.46632 42.9743 2.14379 42.6894 2.75369 42.673C5.48547 42.6036 8.21907 42.642 10.9509 42.6438C12.7459 42.6438 13.8871 43.7685 13.9036 45.5815C13.92 47.4932 13.9072 49.4066 13.9072 51.3201C13.9072 56.5109 13.9091 61.7035 13.9072 66.8943C13.9072 68.4627 13.1622 69.5381 11.831 69.8868C11.5498 69.9598 11.2467 69.969 10.9545 69.969C8.4729 69.9744 5.98763 69.9051 3.50968 69.9964C1.82606 70.0584 0.644597 69.5052 0 67.9241C0 60.1808 0 52.4357 0 44.6905Z" fill="#165D93"/>
<path d="M17.9501 67.2394V66.4287C17.9501 59.14 17.9593 51.8514 17.9355 44.5627C17.9337 43.9474 18.1327 43.6973 18.7061 43.5293C23.1562 42.2129 27.3762 42.7113 31.4027 45.0155C31.7734 45.2273 32.2427 45.3588 32.6681 45.3624C36.176 45.3898 39.6838 45.3734 43.1917 45.3789C45.8796 45.3825 48.0946 47.3106 48.3685 49.8685C48.6607 52.6 46.9461 54.9607 44.2398 55.5286C43.8655 55.6071 43.4729 55.618 43.0876 55.6199C38.9187 55.6253 34.7498 55.6199 30.5809 55.6253C29.489 55.6253 28.7074 56.1585 28.4225 57.0659C27.9934 58.4261 28.9777 59.7115 30.4951 59.7243C32.7266 59.7426 34.9598 59.7298 37.1931 59.7298C39.1524 59.7298 41.1118 59.7353 43.0693 59.7298C48.3211 59.7115 52.322 55.8134 52.5027 50.5697C52.5119 50.3159 52.6561 49.9982 52.8442 49.8284C55.9558 46.9874 59.0857 44.1665 62.2082 41.3365C64.142 39.5855 66.83 39.5709 68.614 41.3073C70.4163 43.0619 70.4821 45.7988 68.6871 47.7506C64.7866 51.992 60.8496 56.2005 56.9273 60.4218C56.122 61.289 55.3222 62.1636 54.5077 63.0236C51.8874 65.7897 48.6808 67.2357 44.8552 67.2394C36.1541 67.2467 27.4511 67.2412 18.7499 67.2412C18.5071 67.2412 18.2624 67.2412 17.9483 67.2412L17.9501 67.2394Z" fill="#165D93"/>
</g>
<defs>
<clipPath id="clip0_0_275">
<rect width="70" height="70" fill="white"/>
</clipPath>
</defs>
</svg>
