<svg width="48" height="57" viewBox="0 0 48 57" fill="none" xmlns="http://www.w3.org/2000/svg">
<g clip-path="url(#clip0_0_257)">
<path d="M0.00719833 21.9152C0.00484848 24.0133 0.00250244 26.109 0.00719833 28.2046C0.00954437 29.3885 0.657589 30.0528 1.80341 30.0601C2.45615 30.0626 3.11124 30.0601 3.64188 30.0601C4.2688 31.771 4.86049 33.3911 5.45453 35.0113C5.50618 35.1486 5.59071 35.2736 5.64237 35.4108C6.07909 36.5849 6.86801 37.0604 8.09366 36.982C9.52124 36.8937 10.9582 36.9624 12.5102 36.9624C8.73466 32.2587 7.13568 27.0355 8.48108 21.0671C9.35453 17.1895 11.3996 14.0545 14.4544 11.6696C20.6014 6.87285 29.1457 7.30914 34.7598 12.7138C38.0822 15.91 39.8713 19.893 39.9793 24.6114C40.085 29.2856 38.4978 33.3495 35.49 36.9109C35.7107 36.9354 35.8398 36.9599 35.969 36.9599C37.4623 36.9624 38.9556 36.9526 40.4489 36.9648C41.2026 36.9722 41.7262 36.629 42.0878 35.9452C42.9589 34.298 43.5858 32.5504 44.0531 30.7366C44.1071 30.5258 44.1634 30.315 44.2315 30.0601C44.9171 30.0601 45.5887 30.065 46.2602 30.0577C47.3309 30.0503 47.993 29.3689 47.9954 28.2561C48.0024 26.1237 48.0024 23.9888 47.9954 21.8563C47.993 20.7337 47.3403 20.0523 46.2743 20.0401C45.6356 20.0327 44.9946 20.0352 44.356 20.0303C44.3231 20.0303 44.2902 20.0082 44.2104 19.9813C43.6915 17.7679 42.865 15.6551 41.6652 13.6329C42.1653 13.1305 42.6607 12.6525 43.135 12.1549C43.8934 11.3559 43.8958 10.4 43.135 9.6009C41.6957 8.08613 40.2517 6.57871 38.8006 5.0762C38.0328 4.28205 37.1218 4.2845 36.354 5.0762C35.875 5.57132 35.4195 6.09095 35.0439 6.50028C33.5083 5.80172 32.0877 5.13993 30.6531 4.50755C30.2493 4.32862 29.8125 4.20851 29.3805 4.11782C28.9532 4.02713 28.7254 3.86046 28.7912 3.35554C28.8405 2.99032 28.7724 2.61041 28.8076 2.24274C28.9039 1.20839 28.5517 0.443647 27.6289 0H20.376C19.4485 0.441195 19.1128 1.20839 19.1949 2.24274C19.2396 2.79424 19.2043 3.35063 19.2043 3.87026C18.1219 4.25999 17.0677 4.58598 16.058 5.02228C15.0461 5.45857 14.0787 6.01006 13.0057 6.5542C12.5807 6.09095 12.1252 5.57377 11.6485 5.07865C10.8854 4.2845 9.97205 4.2796 9.20426 5.0762C7.75086 6.57626 6.30685 8.08368 4.86753 9.6009C4.10678 10.4024 4.11148 11.3559 4.86988 12.1549C5.34417 12.655 5.84194 13.128 6.33737 13.6231C5.15633 15.6477 4.31575 17.741 3.78746 20.0401C3.13706 20.0401 2.48667 20.0376 1.83393 20.0401C0.652893 20.045 0.00954437 20.6994 0.00719833 21.9152Z" fill="#165D93"/>
<path d="M14.2711 33.8618C15.6776 35.6976 16.7624 37.683 17.293 39.9846C17.3212 40.1096 17.5067 40.2861 17.6217 40.2885C19.0751 40.3081 20.5309 40.3008 22.0477 40.3008C21.7847 38.911 21.5358 37.5703 21.2822 36.232C20.6037 32.6338 19.9204 29.0356 19.2442 25.4374C19.061 24.4619 19.6316 23.5746 20.5332 23.4005C21.3996 23.2339 22.2026 23.8344 22.3905 24.8148C22.8976 27.4669 23.3954 30.119 23.8955 32.7735C23.9096 32.8421 23.9308 32.9132 24.0505 33.0014C24.1327 32.6068 24.2219 32.2122 24.2971 31.8151C24.7314 29.5258 25.1611 27.2365 25.5931 24.9472C25.8021 23.8442 26.5934 23.2069 27.5044 23.4054C28.4389 23.6113 28.932 24.4888 28.7254 25.5795C27.8331 30.3052 26.9409 35.0285 26.051 39.7542C26.0205 39.9184 26.0087 40.0851 25.9829 40.3008C27.4739 40.3008 28.9461 40.3057 30.4183 40.2861C30.5169 40.2861 30.6789 40.1096 30.7047 39.9895C31.2236 37.5997 32.4234 35.6069 33.8534 33.6951C40.0896 25.3786 35.8562 14.0545 26.5793 11.9613C19.3193 10.324 12.057 15.8218 11.2986 23.5476C10.9206 27.4081 11.9607 30.8469 14.2711 33.8618Z" fill="#165D93"/>
<path d="M17.5654 43.6808C17.6076 44.497 17.5724 45.2838 17.7086 46.0387C17.9786 47.5412 19.2371 48.6222 20.6976 48.6418C22.9 48.6687 25.1048 48.6736 27.3072 48.6418C28.9813 48.6173 30.3384 47.1809 30.3948 45.4407C30.4136 44.8671 30.3971 44.2936 30.3971 43.6808H17.5654Z" fill="#165D93"/>
<path d="M20.8496 54.1396C21.0797 55.897 22.5638 57.1127 24.2357 56.9926C25.8888 56.875 27.1733 55.4362 27.1992 53.6567C27.2085 53.1248 27.2015 52.5905 27.2015 52.0243H20.8355C20.8355 52.7449 20.758 53.4533 20.8496 54.1396Z" fill="#165D93"/>
</g>
<defs>
<clipPath id="clip0_0_257">
<rect width="47.9952" height="57" fill="white" transform="matrix(-1 0 0 1 48 0)"/>
</clipPath>
</defs>
</svg>
