<svg width="62" height="70" viewBox="0 0 62 70" fill="none" xmlns="http://www.w3.org/2000/svg">
<path d="M37.6801 69.3895H13.0898C10.9719 68.6254 10.3599 67.0551 10.4051 64.9284C10.5064 60.189 10.4639 55.447 10.4899 50.7063C10.4927 50.3018 10.4146 50.0046 10.0765 49.7141C4.07986 44.5717 0.70916 38.0897 0.0903317 30.2396C-0.327241 24.9425 0.702315 19.91 3.19132 15.2086C6.32927 9.27901 11.0362 4.97125 17.2437 2.34642C23.7194 -0.392412 30.3568 -0.738499 37.0941 1.33395C42.157 2.89066 46.382 5.7435 49.8691 9.6631C51.9569 12.0097 53.6875 14.6006 54.7663 17.5715C55.7904 20.3918 56.171 23.3451 56.5133 26.2983C56.7405 28.2636 56.8678 30.2139 57.755 32.0637C59.2432 35.1677 60.5904 38.3394 61.9965 41.4814V42.43C61.5871 43.2403 60.9176 43.6827 60.0469 43.942C58.9626 44.265 57.9042 44.6762 56.8418 45.0698C55.177 45.686 55.4385 45.272 55.4002 47.13C55.3564 49.1767 55.3865 51.2424 55.1086 53.2619C54.8745 54.9638 54.2652 56.6169 53.7874 58.2822C53.2904 60.0167 52.1541 60.8486 50.3373 60.85C47.2664 60.8541 44.1956 60.85 41.1247 60.85C40.8865 60.85 40.6482 60.85 40.3785 60.85C40.3785 62.5384 40.384 64.1168 40.3772 65.6952C40.3717 66.9316 39.9842 68.0092 38.9287 68.7462C38.5481 69.0122 38.099 69.1805 37.6801 69.3922V69.3895ZM27.2271 37.0134C27.5461 37.0134 27.8664 36.9931 28.1827 37.0175C29.1684 37.0935 29.8297 36.6945 30.224 35.7838C30.5197 35.1011 30.8716 34.4415 31.2371 33.7942C31.359 33.5784 31.5794 33.3911 31.7971 33.2608C32.472 32.8618 33.1621 32.7763 33.9137 33.1373C34.4408 33.3897 35.0295 33.5105 35.584 33.71C36.352 33.9855 37.0037 33.8349 37.5705 33.2513C38.1072 32.6989 38.6548 32.156 39.2121 31.624C39.8008 31.0635 39.9582 30.4188 39.6844 29.6561C39.4256 28.9354 39.1861 28.2079 38.9437 27.4818C38.6932 26.7354 39.16 25.617 39.8706 25.2628C40.5606 24.9181 41.252 24.576 41.9475 24.2435C42.6786 23.8934 43.0387 23.3328 43.0168 22.5172C42.9976 21.7734 42.9908 21.027 43.0181 20.2832C43.0496 19.4092 42.6635 18.8296 41.8763 18.4659C41.2178 18.1619 40.5538 17.8592 39.9336 17.4901C39.6324 17.3109 39.3887 17.0015 39.1778 16.7097C38.7452 16.1057 38.8041 15.4706 39.0875 14.8042C39.3435 14.2043 39.5215 13.5718 39.7255 12.953C39.9445 12.2893 39.7885 11.7084 39.297 11.2171C38.7206 10.6403 38.1319 10.073 37.5623 9.48938C36.99 8.90307 36.3342 8.78228 35.5703 9.04965C34.7995 9.31837 34.0218 9.56674 33.2401 9.80289C33.058 9.85854 32.8321 9.88568 32.6582 9.8314C31.8929 9.58981 31.2111 9.27223 30.9236 8.40226C30.7292 7.80916 30.3595 7.27443 30.0843 6.70576C29.7626 6.04073 29.215 5.74079 28.4989 5.72721C27.6569 5.71229 26.815 5.71229 25.973 5.72721C25.2542 5.74079 24.7161 6.05701 24.3944 6.71661C24.0973 7.32464 23.7811 7.92317 23.4771 8.52712C22.8953 9.67939 21.9999 10.0553 20.7786 9.65632C20.1324 9.44459 19.4862 9.23151 18.8386 9.02386C18.1281 8.79449 17.4997 8.9085 16.9644 9.45409C16.3921 10.0363 15.8143 10.6118 15.2256 11.1777C14.6752 11.7084 14.552 12.33 14.7834 13.0358C15.0161 13.7415 15.2379 14.4513 15.5049 15.1448C15.6802 15.5981 15.6172 15.9822 15.4529 16.4328C15.2352 17.0327 14.8833 17.4073 14.2974 17.6489C13.6703 17.9081 13.0816 18.2556 12.4669 18.5473C11.8002 18.8636 11.4771 19.3956 11.4634 20.1081C11.4469 20.9428 11.451 21.7788 11.462 22.6135C11.4716 23.3573 11.8125 23.8988 12.4998 24.2259C13.1953 24.5584 13.9031 24.8733 14.5657 25.2628C14.8669 25.4406 15.1106 25.7568 15.3105 26.0554C15.6993 26.6376 15.6966 27.2497 15.4091 27.9025C15.1462 28.4984 14.9669 29.1322 14.7724 29.7551C14.5794 30.3767 14.6369 30.9671 15.1147 31.4543C15.7664 32.1167 16.4208 32.7776 17.0958 33.4155C17.538 33.8335 18.0761 33.9638 18.6744 33.7724C19.4082 33.5363 20.142 33.3029 20.8745 33.0626C21.9533 32.7098 22.924 33.1101 23.4347 34.124C23.5661 34.3859 23.7277 34.6383 23.8221 34.9125C24.3862 36.5303 25.3843 37.4396 27.2257 37.0175L27.2271 37.0134Z" fill="#165D93"/>
<path d="M27.2709 14.7677C30.9332 14.7853 33.9753 17.8268 33.9219 21.4193C33.8685 25.0254 30.8606 27.9922 27.2503 28.0004C23.6072 28.0085 20.5733 24.9901 20.5801 21.365C20.587 17.7236 23.6017 14.75 27.2709 14.7677Z" fill="#165D93"/>
</svg>
