<svg width="51" height="56" viewBox="0 0 51 56" fill="none" xmlns="http://www.w3.org/2000/svg">
<g clip-path="url(#clip0_0_267)">
<path d="M50.6447 51.765C48.8832 42.7817 43.7553 36.3985 35.2818 32.6521C35.1591 32.5981 35.0217 32.5748 34.8621 32.5281C34.206 38.2521 33.5572 43.9236 32.8967 49.6854C32.808 49.5425 32.7592 49.4871 32.7371 49.4244C31.3036 45.1792 29.8658 40.9354 28.453 36.6829C28.3954 36.5094 28.4959 36.225 28.6185 36.0617C29.3781 35.0525 30.1583 34.0579 30.9445 33.0692C31.2682 32.6594 31.5061 32.2408 31.2489 31.7188C30.9874 31.1879 30.5485 30.8394 29.9485 30.8321C27.9358 30.8088 25.9216 30.784 23.9103 30.8379C22.8197 30.8671 22.2434 32.1431 22.8567 33.0298C23.5542 34.0375 24.2768 35.0292 24.9536 36.0515C25.0807 36.2425 25.1413 36.5706 25.0704 36.7821C23.6798 40.966 22.2656 45.1413 20.8528 49.3165C20.8174 49.4186 20.7509 49.509 20.6607 49.6767C19.9041 43.6188 19.1593 37.6585 18.413 31.6735C18.249 31.7115 18.1396 31.726 18.0377 31.7625C10.006 34.5465 4.33726 39.7527 1.39059 47.6948C0.399005 50.3635 -0.0812708 53.1417 0.0118287 56H50.9949C50.8856 54.5869 50.9151 53.1475 50.6447 51.765ZM14.095 50.3825H8.50162C8.49275 50.1871 8.47354 49.9946 8.47354 49.8021C8.47059 48.6733 8.46468 47.5446 8.47502 46.4173C8.48537 45.2827 8.95086 44.819 10.0858 44.8102C11.0079 44.8029 11.93 44.7971 12.8522 44.8263C13.5157 44.8467 14.0521 45.2098 14.0743 45.7946C14.1334 47.3142 14.095 48.8367 14.095 50.3825Z" fill="#005F95"/>
<path d="M39.69 14.019C39.6796 21.7321 33.3282 27.9956 25.5108 28C17.6756 28.0029 11.3079 21.7146 11.3168 13.9796C11.3271 6.26646 17.6771 0.00437728 25.4945 2.28255e-06C33.3356 -0.00437272 39.7003 6.28104 39.69 14.019Z" fill="#005F95"/>
</g>
<defs>
<clipPath id="clip0_0_267">
<rect width="50.9949" height="56" fill="white"/>
</clipPath>
</defs>
</svg>
