<svg width="57" height="70" viewBox="0 0 57 70" fill="none" xmlns="http://www.w3.org/2000/svg">
<g clip-path="url(#clip0_0_292)">
<path d="M37.6012 70H6.61332C7.06565 68.47 7.44991 66.9145 7.98165 65.4129C9.90014 60.002 11.2217 54.4933 11.0161 48.6981C10.9948 48.1082 10.8034 47.7424 10.351 47.3397C8.91182 46.0579 7.37618 44.8271 6.18652 43.3297C0.0411196 35.5948 -1.43213 26.8659 1.35131 17.4961C3.60301 9.91712 8.45524 4.48353 15.952 1.70577C22.0023 -0.536013 28.2045 -0.436756 34.3683 1.23217C40.7803 2.96633 45.4865 6.82032 48.2274 12.9444C50.3018 17.5811 50.7215 22.4759 50.4223 27.4685C50.3429 28.7929 50.584 30.0095 51.2887 31.107C51.8729 32.0173 52.5266 32.8851 53.193 33.7387C54.4919 35.402 55.6517 37.1361 56.2033 39.2063C56.3083 39.6005 56.3707 40.0046 56.4571 40.4328C55.1356 40.6923 53.9233 40.9291 52.6499 41.1787C52.6499 42.6874 52.6315 44.1252 52.6613 45.5616C52.6712 46.0252 52.4968 46.2323 52.0728 46.3556C51.6233 46.4861 51.1781 46.6548 50.7627 46.8675C50.0565 47.2263 49.9643 47.6219 50.489 48.2018C50.8974 48.6527 51.3497 49.088 51.8559 49.4212C52.4699 49.8254 52.5691 50.3046 52.3054 50.9229C52.1948 51.1809 52.0757 51.4432 51.9112 51.6687C50.8222 53.1618 50.1572 54.8506 49.7928 56.6329C49.5673 57.7333 48.9505 58.2054 47.9423 58.3175C47.4546 58.3713 46.9469 58.3997 46.4648 58.3288C45.3489 58.1643 44.2415 57.9389 43.1341 57.7248C41.4269 57.3944 39.7338 56.952 38.0124 56.7393C36.0628 56.4982 34.771 57.8694 35.0461 59.7808C35.1624 60.5876 35.4147 61.3845 35.6927 62.1544C36.6143 64.7025 37.5544 67.2421 37.6026 70H37.6012ZM26.8276 34.5668C24.1718 34.4619 21.8917 33.5303 20.0754 31.5948C18.2604 29.6578 17.4096 27.3381 17.5344 24.695C17.7258 20.6411 20.8042 16.1405 26.8177 15.7562V7.29817H23.867V10.0263C21.9499 10.826 20.159 11.5719 18.1498 12.4099C17.6322 11.837 16.9771 11.111 16.3972 10.4687C14.9551 11.9122 13.5783 13.2904 12.1263 14.7438C12.7828 15.3521 13.489 16.0072 14.0661 16.5432C13.2578 18.4915 12.5077 20.3022 11.7109 22.2235H8.95578V28.1676C9.76259 28.1676 10.534 28.1931 11.3025 28.1576C11.7548 28.1378 11.9179 28.2924 12.0824 28.7277C12.651 30.2392 13.2777 31.7323 13.9441 33.2041C14.1143 33.5813 14.1058 33.7756 13.8123 34.0407C13.2196 34.5753 12.6552 35.1396 12.1362 35.6373C13.5896 37.1134 14.9693 38.5129 16.4865 40.0528C17.1203 39.341 17.7726 38.6079 18.2887 38.028C20.2143 38.8249 22.0066 39.5651 23.9052 40.3506V43.0787H26.8276V34.5668ZM29.1899 19.6287C30.2151 19.6287 31.2006 19.6684 32.1818 19.6117C32.6767 19.5833 33.2042 19.4614 33.6451 19.2402C34.8844 18.6163 36.0911 17.9243 37.302 17.2465C37.6622 17.0452 37.9571 16.97 38.3981 17.1501C39.687 17.6719 41.0936 16.9502 41.5048 15.6414C41.9246 14.3085 41.1305 12.9402 39.7367 12.5928C38.4392 12.2695 37.1503 13.1614 36.8582 14.534C36.8043 14.7864 36.5902 15.0756 36.3662 15.2061C35.29 15.8371 34.2024 16.4496 33.0851 17.0026C32.6427 17.221 32.118 17.3373 31.6217 17.3741C30.8135 17.4337 29.9968 17.3897 29.1885 17.3897V19.6273L29.1899 19.6287ZM29.1871 32.9532C30.0875 32.9532 30.9525 32.9376 31.8146 32.9617C32.1095 32.9702 32.4314 33.0184 32.688 33.1531C33.9372 33.8082 35.1737 34.4845 36.396 35.1879C36.603 35.307 36.8072 35.5721 36.8568 35.8047C37.1716 37.2722 38.4307 38.1145 39.8345 37.7487C41.1305 37.4112 41.8962 36.0613 41.5233 34.7738C41.1305 33.4197 39.6856 32.7433 38.2989 33.2197C38.0351 33.3105 37.6565 33.2906 37.4098 33.1659C36.3818 32.6483 35.3226 32.1563 34.3882 31.4955C32.7518 30.3385 30.9624 30.8915 29.1857 30.7383V32.9532H29.1871ZM29.1488 26.293C31.6487 26.293 34.0464 26.3001 36.4442 26.286C36.8469 26.2831 37.1234 26.3753 37.4027 26.7071C38.3357 27.8145 39.8997 27.8726 40.898 26.8886C41.848 25.9513 41.8409 24.3987 40.8838 23.4713C39.8926 22.5099 38.3343 22.6177 37.3616 23.6642C37.1574 23.8839 36.7845 24.0583 36.4853 24.0626C34.3215 24.0966 32.1563 24.081 29.9911 24.081C29.7387 24.081 29.4863 24.081 29.2155 24.081C29.1843 24.3008 29.1517 24.4355 29.1502 24.5716C29.1446 25.1091 29.1474 25.6465 29.1474 26.2916L29.1488 26.293ZM29.1829 38.5342C30.1849 38.6278 30.9647 39.0915 31.5225 39.9252C31.7579 40.2769 32.0471 40.6044 32.2144 40.9858C32.3491 41.2907 32.4371 41.6835 32.369 41.9997C32.067 43.4219 32.8454 44.7094 34.2379 44.9887C35.5509 45.2539 36.8667 44.3492 37.0426 43.0603C37.2439 41.5899 36.3166 40.4343 34.8362 40.2556C34.6037 40.2272 34.3243 40.0528 34.1868 39.8586C33.5331 38.9397 32.9475 37.9713 32.2768 37.0652C32.0443 36.7504 31.6614 36.4144 31.3027 36.3562C30.6235 36.2442 29.9131 36.3236 29.1829 36.3236V38.5356V38.5342ZM29.1942 14.0675C29.7273 14.0675 30.218 14.0405 30.7043 14.0731C31.4643 14.1242 32.0017 13.8477 32.3988 13.1784C32.8554 12.4099 33.4069 11.6995 33.8777 10.9395C34.1854 10.4432 34.5158 10.1383 35.1581 10.032C36.5278 9.80511 37.3049 8.52895 37.0298 7.18757C36.793 6.03194 35.5409 5.15423 34.3867 5.33572C33.0496 5.54558 32.1024 6.66434 32.3803 8.00572C32.5533 8.84515 32.2811 9.39106 31.8443 9.97951C31.6898 10.188 31.5253 10.395 31.4147 10.6261C30.9922 11.5038 30.3924 12.054 29.3374 11.8413C29.3034 11.8342 29.2594 11.881 29.197 11.915V14.066L29.1942 14.0675Z" fill="#005F95"/>
</g>
<defs>
<clipPath id="clip0_0_292">
<rect width="56.4571" height="70" fill="white"/>
</clipPath>
</defs>
</svg>
