<svg width="77" height="70" viewBox="0 0 77 70" fill="none" xmlns="http://www.w3.org/2000/svg">
<g clip-path="url(#clip0_0_242)">
<path d="M22.6863 70C21.1725 69.4919 20.5896 68.4279 20.6703 66.8588C20.7525 65.2479 20.6494 63.628 20.7495 62.02C21.0245 57.6444 24.8636 54.0609 29.2586 54.0489C35.2182 54.0325 41.1793 54.0325 47.1389 54.0489C51.5339 54.0609 55.3864 57.6519 55.6434 62.0215C55.751 63.8536 55.7047 65.6947 55.7017 67.5313C55.7002 68.8718 54.8679 69.5756 53.7097 70H22.6863Z" fill="#005F95"/>
<path d="M76.381 61.7958C75.8012 63.1542 74.7805 63.6369 73.3086 63.6055C69.858 63.5338 66.406 63.5831 62.954 63.5831H62.0663C62.0245 58.7906 60.5764 54.6258 56.7418 51.3067C57.4696 51.1528 58.0285 50.9391 58.5919 50.9317C61.7928 50.8868 64.9998 50.7792 68.1963 50.9092C72.1967 51.0706 75.3947 53.9563 76.2241 57.8805C76.2585 58.0464 76.3287 58.2048 76.381 58.3662V61.7973V61.7958Z" fill="#005F95"/>
<path d="M30.9935 9.91077C32.2952 7.68563 33.5833 5.4829 34.8715 3.28018C35.272 2.59426 35.656 1.89937 36.076 1.2254C37.0921 -0.406469 39.3367 -0.415435 40.323 1.23885C41.9638 3.98702 43.5613 6.7606 45.1783 9.52372C45.2515 9.64925 45.3367 9.7688 45.4383 9.92422C47.2046 9.14265 48.9366 8.35063 50.6895 7.60493C52.3364 6.90556 54.1012 7.97255 54.1147 9.6896C54.1192 10.3247 53.9473 10.9643 53.8292 11.5979C53.097 15.4953 52.3603 19.3911 51.6161 23.287C51.3531 24.6693 50.4714 25.4016 49.0726 25.4016C41.8174 25.4046 34.5621 25.4046 27.3069 25.4016C25.9156 25.4016 25.0414 24.6618 24.7784 23.2691C23.9655 18.9578 23.1704 14.645 22.3426 10.3367C22.1543 9.35784 22.4083 8.55536 23.145 7.9322C23.9146 7.28065 24.7933 7.19248 25.7229 7.60792C27.3069 8.31476 28.8939 9.01563 30.481 9.71799C30.6349 9.78673 30.7948 9.83904 30.995 9.91525L30.9935 9.91077Z" fill="#005F95"/>
<path d="M38.2264 30.1791C43.5105 30.1836 47.7486 34.4546 47.7396 39.7686C47.7322 45.0408 43.4478 49.2744 38.1307 49.2639C32.872 49.2535 28.6429 44.9571 28.6548 39.6356C28.6668 34.4112 32.9542 30.1747 38.2264 30.1791Z" fill="#005F95"/>
<path d="M19.6676 51.2903C15.83 54.6288 14.3685 58.7652 14.3327 63.5398C14.0696 63.5562 13.8544 63.5816 13.6378 63.5816C9.96008 63.5846 6.2824 63.5861 2.60471 63.5816C0.9848 63.5801 0.0508094 62.6103 0.010461 60.9859C-0.035865 59.1567 0.0418431 57.3575 0.928014 55.6972C2.45826 52.8355 4.81491 51.0796 8.07118 50.9242C11.2931 50.7702 14.5284 50.8883 17.7578 50.9272C18.3316 50.9346 18.904 51.1379 19.6691 51.2888L19.6676 51.2903Z" fill="#005F95"/>
<path d="M70.0149 41.4184C69.9268 44.9571 67.0665 47.7397 63.5831 47.6769C59.9338 47.6111 57.2096 44.7105 57.2962 40.982C57.3769 37.5494 60.3821 34.8566 64.021 34.9567C67.334 35.0478 70.0986 38.0276 70.0149 41.4184Z" fill="#005F95"/>
<path d="M12.7606 47.6798C9.26668 47.6978 6.42137 44.8823 6.37953 41.3646C6.33619 37.8677 9.17254 34.9686 12.6515 34.9522C16.232 34.9357 19.0923 37.7302 19.1027 41.2585C19.1147 44.8196 16.3082 47.6619 12.7606 47.6798Z" fill="#005F95"/>
</g>
<defs>
<clipPath id="clip0_0_242">
<rect width="76.381" height="70" fill="white"/>
</clipPath>
</defs>
</svg>
